<?xml version="1.0" encoding="utf-8"?>
<!DOCTYPE svg PUBLIC "-//W3C//DTD SVG 1.0//EN" "http://www.w3.org/TR/2001/REC-SVG-20010904/DTD/svg10.dtd">
<svg version="1.0" xmlns="http://www.w3.org/2000/svg" width="24px" height="24px" viewBox="0 0 24 24" preserveAspectRatio="xMidYMid meet">
 <g fill="#111211">
  <path d="M0.10 14.25 c-0.10 -5.35 0 -10.30 0.20 -11 0.40 -1.55 2.50 -2.75 4.95 -2.75 1.65 0 1.75 0.10 1.75 1.55 0 0.95 -0.35 1.85 -0.85 2.25 -0.85 0.60 -0.85 0.65 0.15 0.70 0.55 0 1.45 -0.45 1.95 -1 0.50 -0.55 1.55 -1 2.35 -1 1.05 0 1.40 -0.25 1.40 -0.95 0 -0.50 0.30 -1.15 0.65 -1.45 0.80 -0.65 8.85 -0.75 8.85 -0.10 0 0.30 0.55 0.50 1.25 0.50 l1.25 0 0 11.50 0 11.50 -11.90 0 -11.90 0 -0.10 -9.75z m5.90 -1 c0 -0.80 -0.30 -1.25 -0.75 -1.25 -0.90 0 -0.90 0.25 -0.25 1.55 0.70 1.30 1 1.20 1 -0.30z"/>
 </g>
 <g fill="#2f2f2f">
  <path d="M0.55 19.15 c0 -2.70 -0.20 -7.45 -0.35 -10.55 l-0.30 -5.60 1.55 -0.30 c0.85 -0.20 1.55 -0.65 1.55 -1 0 -0.45 0.60 -0.70 1.75 -0.70 1.65 0 1.75 0.10 1.75 1.75 0 1.70 0.05 1.75 2.15 1.75 l2.10 0.05 -1.75 1.55 c-1.60 1.45 -1.65 1.50 -0.25 0.65 0.85 -0.50 2.05 -1.25 2.75 -1.60 0.70 -0.35 0.95 -0.65 0.65 -0.65 -0.35 0 -0.65 -0.35 -0.65 -0.80 0 -0.55 0.40 -0.70 1.60 -0.60 1.30 0.10 1.75 -0.10 2.15 -0.95 0.30 -0.70 0.90 -1.15 1.60 -1.15 0.65 0 1.15 -0.20 1.15 -0.50 0 -0.25 0.75 -0.50 1.70 -0.50 1.50 0 1.70 0.15 1.90 1.65 0.10 0.85 0.05 3.30 -0.10 5.35 -0.20 2.05 -0.35 3.15 -0.40 2.40 -0.10 -1.10 -0.35 -1.40 -1.20 -1.35 -0.65 0 -0.85 0.15 -0.50 0.30 0.70 0.25 0.85 1.65 0.15 1.65 -0.30 0 -0.65 -0.25 -0.80 -0.55 -0.35 -0.55 -3.10 -0.15 -4.05 0.60 -0.30 0.25 -0.70 0.30 -0.85 0.15 -0.15 -0.20 -1.30 0.25 -2.55 1 -2.50 1.45 -3.05 1.60 -2.50 0.70 0.25 -0.45 0.10 -0.45 -0.45 0.05 -0.45 0.35 -0.85 0.90 -0.85 1.15 0 0.75 2.55 0 3.75 -1.05 1.75 -1.55 2.30 -1.70 3 -0.75 0.70 0.90 0.70 0.90 0.75 -0.20 0 -1 0.20 -1.10 1.80 -0.95 0.95 0.10 2.20 0.55 2.75 1 0.50 0.50 1.15 0.85 1.40 0.85 0.25 0 0.55 0.50 0.75 1.15 0.40 1.55 0.35 1.95 -0.15 1.65 -0.45 -0.30 -1.20 4.70 -0.80 5.15 0.15 0.10 0.25 -0.25 0.25 -0.85 0 -0.60 0.25 -1.10 0.50 -1.10 0.30 0 0.50 1.15 0.50 2.50 0 1.40 0.20 2.50 0.40 2.50 0.20 0 0.30 -1.45 0.20 -3.25 -0.25 -3.60 0.25 -7.90 0.85 -7.55 0.20 0.15 0.35 2.80 0.35 5.90 l-0.05 5.65 -4.85 0.15 c-3.85 0.10 -4.90 0 -4.90 -0.55 0 -0.45 0.50 -0.60 1.75 -0.45 2.20 0.25 2.25 -0.45 0.15 -1.40 -0.90 -0.35 -1.80 -0.75 -2 -0.90 -0.25 -0.10 -0.40 0.45 -0.40 1.25 -0.05 1.20 -0.10 1.25 -0.55 0.55 -0.25 -0.50 -0.85 -0.90 -1.30 -0.90 -0.60 0 -0.65 0.15 -0.20 0.70 1 1.20 -0.95 1.80 -6.10 1.80 l-4.70 0 -0.10 -4.85z m9.45 3.25 c0 -0.25 -1.40 -2 -3.15 -3.80 -4.50 -4.80 -5.05 -5.75 -4.70 -8.80 0.15 -1.60 0.10 -2.20 -0.15 -1.55 -0.65 1.50 -0.60 -0.10 0.10 -2.35 0.35 -1.25 0.80 -1.85 1.25 -1.70 0.35 0.15 0.65 -0.05 0.65 -0.45 0 -0.40 0.40 -0.95 0.90 -1.20 1.20 -0.70 0.45 -0.70 -1.15 0.05 -2.75 1.25 -3.50 6.90 -1.95 13.90 0.65 2.75 0.70 3.85 0.25 4.80 -0.30 0.70 -0.55 1.40 -0.55 1.60 0 0.20 1.90 0.30 4.25 0.20 2.45 -0.10 4.25 -0.40 4.25 -0.70z m8.15 -1.85 c-0.15 -0.65 -0.55 -0.85 -1.20 -0.70 -0.50 0.15 -0.95 0 -0.95 -0.30 0 -0.30 -0.20 -0.55 -0.50 -0.55 -1.05 0 -0.45 0.90 1.15 1.70 0.85 0.40 1.65 0.80 1.70 0.80 0 0 -0.05 -0.40 -0.20 -0.95z m-4.60 -1.20 c0.95 -0.70 1.95 -2.50 1.95 -3.45 0 -0.35 -0.40 0.10 -0.90 1.05 -1.10 2.25 -3.25 3.05 -4.65 1.75 -1.05 -0.95 -1.30 -0.55 -0.30 0.55 0.75 0.85 2.80 0.95 3.90 0.10z m5.95 -1.25 c0 -0.80 -1.25 -1.60 -2.45 -1.60 l-1.30 0.05 1.20 0.95 c1.20 1 2.55 1.35 2.55 0.60z m-9 -1.10 c1.65 -0.85 3 -2.25 3 -3.15 0 -0.10 -0.80 0.55 -1.80 1.45 -0.95 0.95 -2.20 1.70 -2.75 1.70 -0.50 0 -0.95 0.25 -0.95 0.50 0 0.70 0.25 0.65 2.50 -0.50z m-3.15 -2.20 c-0.45 -0.35 -0.85 -1.25 -0.85 -2 0 -0.95 -0.25 -1.30 -1 -1.30 -0.55 0 -1 -0.25 -1 -0.50 0 -0.60 1.40 -1.25 4.35 -2 1.15 -0.30 2.25 -0.70 2.40 -0.95 0.15 -0.25 -0.80 -0.15 -2.10 0.25 -3 0.90 -3.65 0.90 -3.70 -0.15 0 -0.55 -0.25 -0.35 -0.55 0.55 -0.40 1.05 -0.65 1.25 -0.95 0.75 -0.35 -0.55 -0.45 -0.55 -0.45 0.15 0 0.45 -0.30 0.95 -0.60 1.05 -0.40 0.15 -0.30 0.30 0.25 0.30 0.55 0.05 0.85 0.45 0.85 1.25 0 1.20 0.75 2.05 2.70 3.05 1.35 0.75 1.85 0.40 0.65 -0.45z m11.90 0.20 c0.90 -0.35 0.90 -0.40 -0.40 -0.75 -1.50 -0.40 -2.15 -0.10 -1.60 0.70 0.35 0.65 0.60 0.65 2 0.05z m0.25 -2.45 c0 -0.45 -1.65 -1.05 -2.90 -1.05 -0.50 0 -0.50 0.15 0 0.75 0.70 0.80 2.90 1 2.90 0.30z m-0.25 -6.55 c0.20 -0.30 -0.25 -0.25 -0.95 0.10 -0.70 0.30 -1.30 0.75 -1.30 1 0 0.50 1.80 -0.35 2.25 -1.10z m-3.90 -1.35 c1.45 -0.80 2.05 -0.85 1.25 -0.05 -0.35 0.35 -0.60 0.85 -0.60 1.10 0 0.30 0.60 -0.20 1.30 -1.10 1.05 -1.30 1.45 -1.55 1.80 -1 0.40 0.50 0.45 0.45 0.25 -0.15 -0.15 -0.45 0 -1.10 0.30 -1.45 0.45 -0.50 0.45 -0.60 -0.20 -0.35 -1.40 0.45 -6.20 3.70 -6.95 4.65 -0.65 0.85 -0.55 0.80 0.50 -0.05 0.70 -0.55 1.75 -1.30 2.35 -1.60z"/>
  <path d="M2.65 18.65 l-0.10 -3.80 3.25 3.20 c1.75 1.75 3.20 3.45 3.20 3.80 0 0.45 -0.90 0.65 -3.10 0.65 l-3.15 0 -0.10 -3.85z"/>
  <path d="M22.90 9.65 c-0.15 -0.50 -0.30 -2.30 -0.35 -4 -0.10 -2.60 0 -3.15 0.65 -3.15 0.65 0 0.80 0.70 0.80 4 0 3.65 -0.55 5.25 -1.10 3.15z"/>
 </g>
 <g fill="#555555">
  <path d="M8.50 23.50 c0 -0.25 0.35 -0.50 0.75 -0.50 1.35 0 0.75 -1.20 -2.05 -4.15 l-2.75 -2.90 1.90 0.15 c1.30 0.10 1.85 0.35 1.75 0.85 -0.25 1.10 1.95 3.05 3.40 3.05 1.80 0 4.25 -2.35 4.25 -4.10 -0.05 -2.75 -1 -3.05 -7.40 -2.10 l-2.40 0.35 0.15 -1.95 c0.15 -1.70 0.35 -1.95 1.90 -2.40 0.95 -0.25 1.85 -0.65 2 -0.80 0.15 -0.20 0.65 -0.45 1.15 -0.65 1.45 -0.55 1 1.05 -0.55 1.85 -1.65 0.85 -3.40 2.70 -2.95 3.10 0.55 0.55 2.55 -0.25 4.05 -1.55 0.80 -0.70 1.55 -1.25 1.60 -1.25 0.10 0 0.80 0.65 1.55 1.45 1.15 1.15 1.70 1.35 3.05 1.20 1.90 -0.30 2.10 -1 0.35 -1.45 -1.85 -0.45 -1.55 -1.40 0.30 -1 1.30 0.25 1.50 0.15 1.25 -0.50 -0.15 -0.45 -0.30 -0.90 -0.30 -1 0 -0.10 -0.45 -0.20 -0.95 -0.20 -1.95 0 -1.75 -1.35 0.35 -2.45 1.60 -0.85 1.05 -1.25 -0.60 -0.50 -0.70 0.35 -1.45 0.45 -1.60 0.30 -0.50 -0.45 2.30 -3.90 2.85 -3.60 0.25 0.20 0.45 0.05 0.45 -0.20 0 -0.30 0.80 -0.55 1.75 -0.55 1.70 0 1.75 0.05 1.70 1.90 l-0.05 1.85 -0.65 -1.75 c-0.35 -0.95 -0.70 -1.35 -0.70 -0.85 -0.05 0.45 -0.20 0.85 -0.40 0.85 -0.25 0 -0.45 3 -0.50 6.65 -0.05 3.60 -0.40 7.70 -0.80 9.05 -0.65 2.50 -2.05 4 -2.75 3.05 -0.55 -0.75 -3.70 -2.30 -4 -2 -0.20 0.15 -0.05 0.75 0.30 1.25 0.80 1.25 0.35 1.25 -1 0 -1.05 -1 -2.45 -0.85 -1.45 0.15 1.10 1.10 0.60 1.85 -1.20 1.85 -0.95 0 -1.75 -0.20 -1.75 -0.50z m10.25 -3.45 c-0.75 -0.70 -3.75 -1.20 -3.75 -0.65 0 0.75 3.20 2.10 3.75 1.55 0.30 -0.30 0.30 -0.60 0 -0.90z m0.75 -2.55 c0 -0.80 -0.35 -1 -1.75 -1 -2.65 0 -1.65 1.70 1.15 1.95 0.30 0 0.60 -0.40 0.60 -0.95z m0.25 -2.95 c-0.80 -0.75 -2.40 -0.85 -2.60 -0.15 -0.30 0.75 1.90 1.65 2.60 1.05 0.30 -0.30 0.30 -0.60 0 -0.90z"/>
  <path d="M22.50 15.90 c0 -1.25 0.60 -2.90 1.05 -2.90 0.25 0 0.45 0.80 0.45 1.75 0 1.20 -0.25 1.75 -0.75 1.75 -0.40 0 -0.75 -0.30 -0.75 -0.60z"/>
  <path d="M0.35 12.65 c-0.55 -0.50 -0.40 -6.15 0.10 -6.15 0.25 0 0.45 1.45 0.45 3.25 0 1.80 -0.10 3.25 -0.15 3.25 -0.05 0 -0.25 -0.15 -0.40 -0.35z"/>
  <path d="M2.15 12.25 c-0.35 -0.95 0.15 -4.30 0.70 -4.70 0.20 -0.15 0.40 -0.50 0.45 -0.80 0.05 -1.35 0.95 -3.55 1.65 -4.15 0.70 -0.60 0.70 -0.65 -0.05 -0.40 -0.50 0.15 -1.25 0.45 -1.65 0.60 -0.55 0.25 -0.75 -0.05 -0.75 -1 0 -1.15 0.20 -1.30 1.80 -1.30 l1.85 0 -0.25 2.25 c-0.25 2.10 -0.20 2.25 0.90 2.25 1.55 0 2.05 1 0.90 1.85 -0.80 0.60 -1 0.55 -1.55 -0.15 -0.55 -0.75 -0.65 -0.70 -0.95 0.50 -0.15 0.70 -0.50 1.30 -0.75 1.30 -0.25 0 -0.45 1 -0.45 2.25 0 1.70 -0.20 2.25 -0.75 2.25 -0.45 0 -0.90 -0.35 -1.10 -0.75z"/>
  <path d="M15 11.30 c0 -0.40 0.25 -0.90 0.50 -1.05 0.30 -0.15 0.50 0.15 0.50 0.70 0 0.60 -0.20 1.05 -0.50 1.05 -0.25 0 -0.50 -0.30 -0.50 -0.70z"/>
  <path d="M10.50 6 c0 -0.30 0.50 -0.75 1.15 -1 0.95 -0.40 1 -0.45 0.15 -0.45 -0.55 -0.05 -1.40 0.30 -1.90 0.80 -0.85 0.75 -0.90 0.75 -0.90 -0.25 0 -0.75 0.30 -1.10 1 -1.10 0.55 0 1 -0.20 1 -0.50 0 -0.55 1.50 -0.65 2.70 -0.20 1 0.40 1.05 1.20 0.10 1.20 -0.35 0 -0.80 0.45 -0.95 1 -0.25 1.05 -2.35 1.45 -2.35 0.50z"/>
  <path d="M15.60 2.70 c-0.35 -0.40 -0.50 -1 -0.30 -1.35 0.20 -0.30 -0.10 -0.15 -0.70 0.35 -1.10 0.95 -1.10 0.95 -1.10 -0.35 0 -1.20 0.20 -1.35 1.75 -1.35 1.60 0 1.75 0.10 1.75 1.45 0 1.75 -0.50 2.20 -1.40 1.25z"/>
 </g>
 <g fill="#7b7b7b">
  <path d="M8 23.50 c0 -0.25 0.60 -0.50 1.30 -0.50 l1.30 0 -0.90 -1.35 c-0.50 -0.80 -1.50 -2.05 -2.30 -2.90 -1.55 -1.65 -1.50 -1.50 -0.95 -4.85 0.35 -2.30 0.35 -2.40 -0.80 -2.40 -0.80 0 -1.15 0.30 -1.15 1 0 0.55 0.25 1 0.50 1 0.30 0 0.50 0.70 0.50 1.55 0 2 -0.95 1.70 -2.35 -0.80 -1.20 -2.20 -1.20 -5.35 0.10 -7.90 0.40 -0.85 0.75 -1.90 0.75 -2.35 0 -0.75 0.90 -1.50 1.80 -1.50 0.10 0 0.20 0.80 0.20 1.75 0 0.95 -0.20 1.75 -0.50 1.75 -0.25 0 -0.50 0.60 -0.50 1.30 0 0.70 -0.25 1.70 -0.50 2.25 -0.30 0.50 -0.45 0.95 -0.40 0.95 0.10 0 1.90 -0.55 4.05 -1.20 2.10 -0.70 3.85 -1.05 3.85 -0.90 0 0.70 -0.80 1.45 -2.60 2.55 -2.20 1.30 -2.60 2.80 -0.65 2.45 0.90 -0.20 1.25 -0.05 1.25 0.55 0 1.60 -0.65 3.05 -1.30 3.05 -1.10 0 -0.80 0.80 0.80 2.15 0.85 0.70 1.50 1.60 1.50 2.05 0 0.40 0.25 0.90 0.50 1.05 0.30 0.15 0.50 0.65 0.50 1.05 0 0.50 -0.60 0.70 -2 0.70 -1.10 0 -2 -0.20 -2 -0.50z"/>
  <path d="M14.50 23.50 c0 -0.30 0.30 -0.50 0.65 -0.45 1.30 0.15 2.35 -0.05 2.35 -0.55 0 -0.25 -0.25 -0.50 -0.55 -0.50 -0.30 0 -1.25 -0.50 -2.05 -1.10 l-1.55 -1.05 0.25 1.30 c0.15 0.75 0.10 1.35 -0.10 1.35 -0.45 0 -2.25 -1.95 -1.95 -2.15 0.10 -0.05 0.80 -0.45 1.55 -0.80 0.80 -0.40 1.70 -1.50 2.15 -2.70 0.75 -1.95 0.75 -2.05 -0.20 -3.05 l-1.05 -1 -1.50 1.70 -1.45 1.75 -0.05 -1.80 c0 -2.35 2.50 -4.70 3.10 -2.85 0.10 0.30 0.65 0.60 1.20 0.60 1.55 0.15 2.25 0.80 1.95 1.80 -0.20 0.65 0.05 1.15 0.85 1.60 1.15 0.60 1.10 0.65 -0.55 0.90 -1.65 0.25 -1.70 0.30 -0.85 1.15 1.50 1.50 2.65 1.10 2.95 -1 0.15 -1.25 0 -2.10 -0.45 -2.45 -1.05 -0.85 -0.85 -1.20 0.55 -1.20 1.10 0 1.25 0.20 1.25 1.80 0 2 -0.85 6.05 -1.55 7.35 -0.40 0.75 -0.20 0.85 1.55 0.85 l2.05 0 -0.35 -1.75 c-0.25 -1.40 -0.15 -1.75 0.50 -1.75 0.60 0 0.80 0.50 0.80 2.25 l0 2.25 -4.75 0 c-2.95 0 -4.75 -0.20 -4.75 -0.50z m4.50 -2.75 c0 -0.85 -1.50 -1.75 -2.95 -1.75 -1.55 0 -1.25 0.75 0.60 1.70 2 0.95 2.35 1 2.35 0.05z"/>
  <path d="M0.50 20.75 c0 -1.40 0.20 -1.75 1 -1.75 1.10 0 1.30 1 0.50 2.55 -0.80 1.50 -1.50 1.15 -1.50 -0.80z"/>
  <path d="M0 13.90 c0 -2.25 0.10 -3.95 0.20 -3.85 0.25 0.25 1.80 6.75 1.80 7.50 0 0.25 -0.45 0.45 -1 0.45 -0.90 0 -1 -0.35 -1 -4.10z"/>
  <path d="M15 11.25 c0 -1 1.40 -1.55 2.15 -0.80 0.65 0.65 0.50 0.80 -1 1.25 -0.85 0.30 -1.15 0.15 -1.15 -0.45z"/>
  <path d="M17.80 8.85 c-0.80 -0.60 -0.80 -0.70 0.15 -1.55 1.05 -0.95 1.05 -0.95 1.05 0.60 0 1.80 0 1.80 -1.20 0.95z"/>
  <path d="M23 7.15 c0 -1.35 -0.15 -2.90 -0.30 -3.50 l-0.30 -1.10 -1 1.10 c-0.65 0.75 -1.05 0.90 -1.20 0.50 -0.15 -0.35 -0.65 -0.65 -1.05 -0.65 -0.70 0 -0.70 -0.15 0.10 -1 1.45 -1.60 0.70 -1.55 -1.90 0.20 -1.65 1.10 -3.05 1.65 -4.45 1.70 -1.15 0.05 -2.50 0.45 -3 0.95 -1.05 0.90 -1.15 0.30 -0.30 -1.60 0.30 -0.70 0.95 -1.25 1.50 -1.25 0.55 0 0.90 -0.35 0.90 -1 0 -0.75 0.35 -1 1.45 -1 0.80 0 1.55 0.30 1.75 0.75 0.40 1.10 1.80 0.90 1.80 -0.25 0 -0.85 0.35 -1 2.50 -1 1.40 0 2.50 0.25 2.50 0.50 0 0.30 0.30 0.50 0.70 0.50 0.35 0 0.80 0.70 1 1.55 0.50 2.45 0.35 6.95 -0.20 6.95 -0.25 0 -0.50 -1.05 -0.50 -2.35z m-8.05 -4.95 c0.15 -0.80 0.05 -0.85 -0.65 -0.25 -0.95 0.80 -1.05 1.70 -0.15 1.45 0.30 -0.15 0.70 -0.65 0.80 -1.20z"/>
  <path d="M10.80 5.80 c0.35 -0.95 2.40 -1.10 2.10 -0.15 -0.15 0.30 -0.70 0.65 -1.30 0.75 -0.80 0.15 -1 -0.05 -0.80 -0.60z"/>
  <path d="M16.50 6.10 c0 -0.50 1.10 -1.60 1.60 -1.60 0.75 0 0.40 1.40 -0.40 1.70 -1.05 0.40 -1.20 0.40 -1.20 -0.10z"/>
  <path d="M1.50 2.75 c0 -1.65 0.10 -1.75 1.75 -1.75 0.95 0 1.75 0.25 1.75 0.50 0 0.30 -0.20 0.50 -0.45 0.50 -0.20 0 -1 0.55 -1.75 1.25 l-1.30 1.20 0 -1.70z"/>
 </g>
 <g fill="#a6a6a5">
  <path d="M0.50 22.75 c0 -0.70 0.30 -1.25 0.70 -1.25 0.45 0 0.60 0.40 0.40 1.25 -0.30 1.60 -1.10 1.60 -1.10 0z"/>
  <path d="M2 23.50 c0 -0.30 1.55 -0.50 3.70 -0.50 2.05 0 3.90 0.25 4.05 0.50 0.20 0.30 -1.15 0.50 -3.70 0.50 -2.35 0 -4.05 -0.20 -4.05 -0.50z"/>
  <path d="M10.40 23 c-0.35 -1.20 -0.15 -1.90 0.40 -1.40 0.15 0.20 0.20 0.85 0.10 1.50 l-0.15 1.15 -0.35 -1.25z"/>
  <path d="M12.90 22.75 c-0.35 -1.70 0.05 -1.90 1.15 -0.55 1.20 1.50 1.20 1.80 0 1.80 -0.60 0 -1 -0.45 -1.15 -1.25z"/>
  <path d="M16.50 23.50 c0 -0.25 0.35 -0.50 0.80 -0.50 0.50 0 0.70 -0.30 0.50 -0.75 -0.15 -0.45 0 -0.75 0.45 -0.75 1.25 0 0.80 -1.50 -0.60 -2.15 -2.40 -1.05 -2.60 -1.40 -1.90 -3.35 0.60 -1.75 0.60 -1.85 -0.80 -2.60 -1.35 -0.80 -1.45 -0.80 -1.95 0.15 -0.30 0.50 -0.75 0.95 -1 0.95 -0.85 0 -0.55 -2.30 0.45 -3.20 0.90 -0.85 1 -0.85 1.45 0 0.25 0.45 0.90 0.90 1.40 0.95 0.55 0 1.40 0.30 1.95 0.65 0.85 0.50 0.90 0.65 0.25 1.10 -0.65 0.45 -0.55 0.65 0.50 1.50 l1.25 1 -1.60 0 c-2.05 0 -2.10 0.75 -0.20 1.70 1.20 0.65 1.55 0.65 2 0.10 0.30 -0.35 0.40 -0.75 0.25 -0.95 -0.15 -0.15 -0.10 -0.80 0.10 -1.45 l0.40 -1.15 0.30 1.25 c0.20 0.70 0.20 1.50 0 1.75 -0.20 0.30 -0.35 0.90 -0.35 1.35 0 0.50 -0.30 1.80 -0.65 2.90 -0.50 1.60 -0.90 2 -1.85 2 -0.60 0 -1.15 -0.20 -1.15 -0.50z"/>
  <path d="M19.80 23.45 c0.15 -0.30 0.90 -0.45 1.55 -0.30 0.95 0.15 1.35 0 1.50 -0.70 0.40 -1.35 1.15 -1.15 1.15 0.30 0 1.15 -0.20 1.25 -2.30 1.25 -1.50 0 -2.15 -0.20 -1.90 -0.55z"/>
  <path d="M15 21.05 c-0.65 -0.55 -1.40 -0.85 -1.60 -0.75 -0.20 0.15 -0.40 0 -0.40 -0.30 0 -1.10 1.55 -1.10 2.50 0 0.85 1 1.30 2.05 0.90 2 -0.10 0 -0.70 -0.45 -1.40 -0.95z"/>
  <path d="M4.60 16.05 c-0.80 -0.85 -1.60 -1.95 -1.75 -2.50 -0.20 -0.85 0 -1.05 0.95 -1.05 0.85 0 1.20 0.30 1.20 1 0 0.55 0.35 1 0.75 1 0.50 0 0.75 0.50 0.75 1.50 0 0.85 -0.10 1.50 -0.20 1.50 -0.15 0 -0.90 -0.65 -1.70 -1.45z"/>
  <path d="M7.50 16 c0 -0.80 0.35 -1 1.75 -1 1.95 0 2.30 0.70 0.80 1.50 -1.55 0.80 -2.55 0.60 -2.55 -0.50z"/>
  <path d="M19.20 11.95 c-0.15 -0.30 -1.20 -0.45 -2.25 -0.35 -1.30 0.10 -1.95 -0.05 -1.95 -0.45 0 -1 0.90 -1.25 2.85 -0.70 2.15 0.60 2.70 0.35 1.35 -0.70 -0.90 -0.70 -0.90 -0.70 0.45 -0.75 1.20 0 1.35 0.15 1.35 1.75 0 1.75 -1 2.45 -1.80 1.20z"/>
  <path d="M3.50 11.05 c0 -0.55 -0.25 -1.05 -0.55 -1.15 -0.85 -0.30 -0.05 -3.40 0.85 -3.40 0.55 0 0.70 -0.40 0.50 -1.60 -0.15 -1.10 0 -1.75 0.60 -2.25 0.80 -0.55 0.80 -0.60 -0.05 -0.65 -1.10 0 -3.35 2.15 -3.35 3.25 0 0.40 -0.35 0.75 -0.75 0.75 -0.50 0 -0.75 -0.50 -0.75 -1.45 0 -2.70 0.40 -3.05 3.30 -3.05 2.70 0 2.70 0 2.70 1.55 0 1.40 0.15 1.55 1.15 1.25 0.60 -0.15 1.60 -0.30 2.25 -0.30 0.60 0 1.10 -0.30 1.10 -0.70 0 -0.40 0.55 -0.85 1.25 -1 0.80 -0.20 1.25 -0.65 1.25 -1.30 0 -0.85 0.35 -1 2 -1 1.85 0 2 0.10 2 1.45 0 1.80 -1.85 3.10 -4.15 2.95 -1.20 -0.05 -2.20 0.35 -3.55 1.35 -1.60 1.20 -2.05 1.35 -2.85 0.85 -1 -0.65 -1.35 -0.30 -1.65 1.50 -0.05 0.35 -0.25 0.95 -0.50 1.30 -0.65 1.05 -0.05 1.20 2.25 0.40 1.20 -0.40 3 -0.85 3.95 -1.05 l1.75 -0.30 -1.40 1.25 c-0.75 0.75 -1.95 1.30 -2.65 1.30 -0.65 0 -1.20 0.25 -1.20 0.50 0 0.30 -0.80 0.50 -1.75 0.50 -1.40 0 -1.75 -0.20 -1.75 -0.95z m11.50 -8.85 c0.70 -1.75 0.65 -1.85 -0.50 -0.70 -1.10 1.10 -1.30 2 -0.50 2 0.30 0 0.75 -0.60 1 -1.30z"/>
  <path d="M23 8.75 c0 -0.40 0.25 -0.75 0.50 -0.75 0.30 0 0.50 0.35 0.50 0.75 0 0.40 -0.20 0.75 -0.50 0.75 -0.25 0 -0.50 -0.35 -0.50 -0.75z"/>
  <path d="M17.50 8.35 c0 -0.40 0.60 -1.25 1.40 -1.80 1.35 -1 0.60 -1.50 -0.90 -0.60 -1.20 0.80 -1.55 0.05 -0.65 -1.20 0.50 -0.70 1.30 -1.25 1.80 -1.25 0.75 0 1.15 -1.15 0.90 -2.65 0 -0.20 0.85 -0.35 1.95 -0.35 l2 0 0 2 c0 2.10 -0.90 2.75 -1.35 1 -0.25 -0.90 -1.25 -1.50 -1.05 -0.60 0 0.20 -0.05 0.70 -0.25 1.10 -0.15 0.40 -0.40 1.60 -0.60 2.65 -0.15 1.10 -0.60 1.85 -1 1.85 -0.35 0 -1 0.15 -1.45 0.30 -0.50 0.20 -0.80 0.05 -0.80 -0.45z"/>
  <path d="M23 6.25 c0 -0.70 0.25 -1.25 0.50 -1.25 0.30 0 0.50 0.55 0.50 1.25 0 0.70 -0.20 1.25 -0.50 1.25 -0.25 0 -0.50 -0.55 -0.50 -1.25z"/>
  <path d="M11.25 6 c-0.15 -0.30 0.05 -0.65 0.50 -0.80 0.95 -0.40 1.50 0 1 0.75 -0.40 0.70 -1.10 0.70 -1.50 0.05z"/>
 </g>
 <g fill="#c9c8c8">
  <path d="M10.35 23.15 c-0.10 -0.50 -0.40 -1.30 -0.60 -1.75 -0.25 -0.65 -0.10 -0.90 0.50 -0.90 2.85 0 6.10 -3.30 5.60 -5.75 -0.15 -1.05 0.05 -1.20 2.10 -1.50 l2.30 -0.35 -1.15 -0.90 c-1.45 -1.20 -1.40 -1.35 0.40 -1.30 1.30 0.05 1.50 0.25 1.50 1.45 0 2.20 -1 8.50 -1.55 9.45 -0.25 0.50 -0.45 1.25 -0.45 1.65 0 0.85 -1.75 1.05 -2.25 0.25 -0.15 -0.25 0.05 -0.50 0.45 -0.50 0.45 0 0.80 -0.20 0.80 -0.50 0 -0.25 -0.35 -0.50 -0.80 -0.50 -0.45 0 -1.35 -0.45 -2.05 -1 -0.70 -0.55 -1.45 -0.85 -1.70 -0.70 -0.60 0.35 0.40 2.15 1.35 2.55 1 0.35 0.90 1.15 -0.15 1.15 -0.50 0 -1.30 -0.70 -1.75 -1.50 -0.45 -0.85 -1.10 -1.50 -1.40 -1.50 -0.75 0 -0.60 0.80 0.25 1.50 1 0.85 0.95 1.50 -0.20 1.50 -0.50 0 -1.05 -0.40 -1.20 -0.85z m8.80 -2 c0.25 -0.15 0.05 -0.70 -0.45 -1.20 -0.90 -1 -3.70 -1.35 -3.70 -0.45 0 0.30 0.25 0.50 0.50 0.50 0.30 0 0.50 0.30 0.50 0.70 0 0.65 2.25 1 3.15 0.45z m0.55 -3.90 c-0.15 -0.35 -0.05 -1.10 0.25 -1.65 0.55 -1.10 -0.10 -1.60 -2 -1.60 -1.15 0 -1.20 0.40 -0.10 1.60 0.75 0.85 0.75 0.90 -0.50 0.90 -1.75 0 -1.70 0.75 0.05 1.70 1.45 0.75 2.75 0.25 2.30 -0.95z"/>
  <path d="M6.85 18.15 c-0.20 -0.15 -0.35 -0.90 -0.40 -1.60 0 -1.05 -0.10 -1.10 -0.35 -0.40 -0.35 0.85 -0.45 0.80 -1.50 -0.15 -1.35 -1.30 -1.40 -2 -0.10 -2 0.85 0 1 -0.35 1 -1.90 0 -1.80 0.10 -2 1.95 -2.50 3.80 -1.15 4.65 -0.55 1.75 1.30 -1.10 0.75 -1.70 1.45 -1.60 2 0.20 0.85 0.50 0.90 2.05 0.35 0.60 -0.25 0.85 -0.10 0.85 0.45 0 0.45 0.35 0.80 0.80 0.80 1.45 0 0.40 1.25 -1.70 2 -1.65 0.60 -1.95 0.95 -1.50 1.40 0.45 0.45 0.45 0.60 -0.15 0.60 -0.45 0 -0.95 -0.15 -1.10 -0.35z"/>
  <path d="M3 8.75 c0 -1 0.35 -2.45 0.75 -3.20 0.40 -0.80 0.60 -1.55 0.50 -1.65 -0.15 -0.15 0.20 -0.65 0.75 -1.15 1 -0.90 1 -0.90 1 1.15 0 1.10 -0.20 2.20 -0.50 2.35 -0.25 0.15 -0.50 0.80 -0.50 1.40 -0.05 1.10 -1.05 2.85 -1.70 2.85 -0.15 0 -0.30 -0.80 -0.30 -1.75z"/>
  <path d="M23 8.95 c0 -0.55 0.25 -0.85 0.50 -0.70 0.30 0.15 0.50 0.65 0.50 1.05 0 0.40 -0.20 0.70 -0.50 0.70 -0.25 0 -0.50 -0.45 -0.50 -1.05z"/>
  <path d="M0 5.75 c0 -1.20 0.25 -1.75 0.75 -1.75 0.80 0 0.90 0.60 0.45 2.40 -0.50 1.70 -1.20 1.30 -1.20 -0.65z"/>
  <path d="M19.40 6.40 c0.95 -0.95 0.70 -1.50 -0.45 -0.90 -2.25 1.25 -2.45 0.30 -0.40 -2.10 1.10 -1.35 1.85 -2.40 1.60 -2.40 -0.20 0 -1.60 0.80 -3.10 1.75 -3 1.90 -3.60 1.95 -2.35 0.15 1.20 -1.70 1.05 -2.85 -0.20 -1.50 -0.55 0.60 -1 1.40 -1 1.85 0 0.40 -0.40 0.75 -0.90 0.75 -0.45 0 -1.70 0.55 -2.75 1.25 l-1.85 1.30 0 -1.55 c0 -1 0.25 -1.50 0.75 -1.50 0.40 0 0.75 -0.20 0.75 -0.50 0 -0.25 0.70 -0.50 1.50 -0.50 1.25 0 1.50 -0.20 1.50 -1.20 0 -1.15 0.10 -1.20 4.25 -1.20 3.30 0 4.25 0.15 4.25 0.70 0 0.45 0.55 0.70 1.50 0.70 1.25 0 1.50 0.20 1.50 1.20 0 1.70 -0.90 2.10 -1.30 0.55 -0.15 -0.70 -0.55 -1.25 -0.80 -1.25 -0.30 0 -0.40 0.35 -0.25 0.75 0.20 0.40 0.10 0.85 -0.15 1 -0.30 0.20 -0.50 0.95 -0.50 1.80 0 1.15 -0.20 1.45 -1.10 1.45 -0.85 0 -0.95 -0.15 -0.50 -0.60z"/>
  <path d="M11.25 6 c-0.15 -0.25 0.05 -0.65 0.50 -0.80 1.10 -0.45 1.45 0.05 0.55 0.75 -0.50 0.40 -0.80 0.45 -1.05 0.05z"/>
 </g>
 <g fill="#e6e6e6">
  <path d="M10.50 23.05 c0 -0.50 -1 -2.05 -2.25 -3.45 -2.40 -2.65 -2.95 -4.60 -1.30 -4.60 0.55 0 1.05 -0.20 1.15 -0.40 0.30 -0.75 3.40 -2.65 3.40 -2.15 0 0.30 0.35 0.55 0.75 0.55 1.85 0 -0.20 2.80 -2.40 3.25 -2.45 0.55 -2.55 0.75 -1.05 2.30 1.85 1.95 3.85 1.95 5.65 0 l1.40 -1.50 0.90 1.05 c0.65 0.75 0.70 1 0.15 0.75 -0.40 -0.15 -1.05 -0.05 -1.40 0.15 -0.85 0.55 0.35 1.80 2.15 2.25 1.55 0.40 2.35 -0.65 1.15 -1.50 -0.75 -0.60 -0.75 -0.65 0.20 -0.90 1.25 -0.30 1.30 0.75 0.25 3.35 -0.70 1.60 -2.25 2.55 -2.25 1.30 0 -0.25 0.25 -0.50 0.50 -0.50 0.30 0 0.50 -0.20 0.50 -0.50 0 -0.25 -0.40 -0.50 -0.90 -0.50 -0.55 0 -1.35 -0.45 -1.85 -1 -0.85 -0.90 -2.25 -1.35 -2.25 -0.70 0 0.60 1.20 2.50 1.95 3.05 0.70 0.55 0.65 0.60 -0.30 0.65 -0.65 0 -1.15 -0.30 -1.15 -0.65 0 -0.85 -1.90 -2.60 -2.35 -2.20 -0.15 0.20 0.05 0.75 0.50 1.25 1.10 1.20 1.05 1.60 -0.15 1.60 -0.65 0 -1 -0.35 -1 -0.95z"/>
  <path d="M0.50 19.25 c0 -2.10 1.20 -2.45 1.70 -0.50 0.40 1.50 0.05 2.25 -1 2.25 -0.45 0 -0.70 -0.55 -0.70 -1.75z"/>
  <path d="M19.65 17.20 c-0.15 -0.40 -0.05 -1 0.30 -1.35 0.40 -0.40 0.55 -0.20 0.55 0.80 0 1.50 -0.35 1.75 -0.85 0.55z"/>
  <path d="M0 11.25 c0 -2.90 0.20 -5.25 0.45 -5.25 0.20 0 0.40 1.40 0.35 3.15 0 1.70 0.15 4.05 0.35 5.25 0.35 1.75 0.30 2.10 -0.35 2.10 -0.70 0 -0.80 -0.80 -0.80 -5.25z"/>
  <path d="M16 15.20 c0 -0.75 -0.50 -1.45 -1.50 -2.05 -1.60 -0.95 -2.10 -2 -0.60 -1.40 2.20 0.90 4.40 1.30 5.70 1.05 1.15 -0.25 1.40 -0.10 1.40 0.70 0 0.90 -0.25 0.95 -2 0.70 -2.15 -0.35 -2.75 0.40 -1.15 1.55 0.75 0.55 0.70 0.65 -0.50 0.65 -1.10 0 -1.35 -0.25 -1.35 -1.20z"/>
  <path d="M2.80 10.95 c-0.35 -1.75 0.50 -5.45 1.20 -5.45 0.30 0 0.50 -0.35 0.50 -0.75 0 -0.80 2.15 -0.95 4.45 -0.30 l1.25 0.35 -1.40 1.10 c-1.65 1.25 -2.10 1.35 -2.45 0.50 -0.30 -0.85 -1.30 0.05 -1.55 1.40 -0.15 0.50 -0.40 1.40 -0.60 1.90 -0.30 0.85 -0.20 0.90 0.95 0.60 1.20 -0.30 1.35 -0.15 1.35 0.95 0 1.10 -0.20 1.25 -1.70 1.25 -1.50 0 -1.70 -0.20 -2 -1.55z"/>
  <path d="M18.80 11.55 c-0.15 -0.20 -1.10 -0.35 -2.10 -0.20 -1.30 0.15 -1.75 0 -1.55 -0.45 0.20 -0.70 0.70 -0.70 3.75 -0.20 1.75 0.30 1.80 0.30 0.85 -0.45 -0.55 -0.45 -1.30 -1 -1.70 -1.20 -0.85 -0.50 -0.35 -2.05 0.65 -2.05 1.25 0 2.30 1.50 2.30 3.30 0 1.35 -0.20 1.70 -0.95 1.70 -0.55 0 -1.10 -0.20 -1.25 -0.45z"/>
  <path d="M10.10 9.40 c0.15 -0.35 0.65 -0.75 1.20 -0.85 0.80 -0.15 0.85 -0.05 0.25 0.65 -0.80 0.95 -1.70 1.05 -1.45 0.20z"/>
  <path d="M19.25 2.50 c0.95 -1 1.20 -1.50 0.70 -1.50 -0.40 0 -1.05 0.30 -1.40 0.65 -0.50 0.50 -0.60 0.40 -0.45 -0.40 0.10 -0.75 0.60 -1.05 2.10 -1.15 1.95 -0.15 1.95 -0.15 1.60 1.45 -0.15 0.85 -0.30 1.75 -0.30 2 0 0.25 -0.85 0.45 -1.85 0.45 l-1.85 0 1.45 -1.50z"/>
  <path d="M5.05 2.65 c0.65 -0.75 0.60 -0.80 -0.40 -0.55 -0.95 0.25 -1.15 0.10 -1.15 -0.90 0 -1.05 0.25 -1.20 1.75 -1.20 1.65 0 1.75 0.10 1.75 1.75 0 1.55 -0.15 1.75 -1.30 1.75 -1.20 0 -1.25 -0.10 -0.65 -0.85z"/>
  <path d="M13.50 1.10 c0 -0.95 0.30 -1.10 2 -1.10 1.65 0 2 0.15 2 1 0 0.65 -0.35 1 -1 1 -0.60 0 -1 -0.35 -1 -0.85 0 -0.70 -0.10 -0.70 -1 0.10 -0.95 0.90 -1 0.85 -1 -0.15z"/>
 </g>
 <g fill="#fdfcfc">
  <path d="M0 17.90 c0 -3.35 0.20 -5.90 0.40 -5.65 0.45 0.50 1.55 5.10 1.70 7 0.20 1.85 -0.70 4.75 -1.40 4.75 -0.55 0 -0.70 -1.25 -0.70 -6.10z"/>
  <path d="M10.50 23 c0 -0.50 -1.70 -2.75 -3.75 -4.95 -2.05 -2.20 -3.85 -4.55 -4.05 -5.30 -0.40 -1.65 0.20 -5.60 1.15 -7.50 2.10 -4.05 2.10 -3.95 -0.10 -2.90 -1.35 0.65 -1.90 1.30 -2.35 2.85 -1 3.50 -1.40 3.15 -1.40 -1.10 l0 -4.10 7.50 0 c4.15 0 7.50 0.20 7.50 0.45 0 0.25 -0.35 0.70 -0.75 1.05 -0.40 0.35 -0.75 1.05 -0.75 1.55 0 0.65 -0.35 0.95 -1.05 0.95 -0.55 0 -2 0.70 -3.20 1.50 -2.50 1.75 -2.75 1.80 -2.75 0.65 0 -1.45 -1.85 0.70 -2.15 2.50 -0.30 2 -0.05 2.45 1.05 1.85 2.85 -1.60 8 -2.35 5.40 -0.80 -1.70 1 -3.80 2.90 -3.80 3.35 0 1.20 1.70 0.95 3.75 -0.50 2.20 -1.60 3.25 -1.95 3.25 -1.05 0 0.50 3.15 1.50 4.90 1.50 0.60 0 1.10 -0.20 1.10 -0.50 0 -0.60 -3.35 -1.50 -4.30 -1.15 -0.40 0.15 -0.70 0 -0.70 -0.35 0 -0.45 0.75 -0.55 2.75 -0.35 1.55 0.15 2.75 0.10 2.75 -0.20 0 -0.25 -0.25 -0.45 -0.50 -0.45 -0.30 0 -1.05 -0.45 -1.65 -1 l-1.05 -1.05 1.45 -1.15 c0.85 -0.70 1.35 -1.40 1.10 -1.60 -0.20 -0.20 -0.65 -0.10 -0.95 0.20 -0.70 0.70 -1.90 0.80 -1.90 0.10 0 -0.25 0.80 -1.25 1.75 -2.20 2.75 -2.75 2 -3.20 -1.40 -0.90 -3.35 2.30 -3.40 2.30 -2.35 0 l0.95 -2.15 4 -0.15 4.05 -0.15 0 2.05 c0 2.10 -0.70 2.70 -1.25 1 -0.15 -0.55 -0.50 -1 -0.70 -1 -0.70 0 -1.05 2.80 -1.05 7.80 l0 4.70 -1.35 -0.30 c-0.80 -0.15 -1.65 -0.35 -2 -0.45 -1.10 -0.35 -1.20 0.65 -0.20 1.60 0.95 0.90 0.95 0.90 -0.25 0.90 -0.90 0 -1.20 -0.25 -1.20 -1.10 0 -0.95 -1.60 -2.65 -2.50 -2.65 -0.15 0 -0.55 0.65 -0.90 1.40 -0.65 1.50 -2.40 2.60 -4.10 2.60 -1.40 0 -1.25 0.70 0.45 2.40 1.10 1.10 1.85 1.40 2.75 1.25 0.95 -0.20 1.30 -0.05 1.30 0.55 0 0.45 0.45 1.25 1 1.80 1.15 1.15 1.25 1.50 0.35 1.50 -0.35 0 -0.90 -0.65 -1.20 -1.50 -0.30 -0.80 -0.90 -1.50 -1.35 -1.50 -1 0 -1 0.70 -0.05 1.70 1 1 0.95 1.30 -0.25 1.30 -0.65 0 -1 -0.35 -1 -1z"/>
  <path d="M17.75 23 c0.20 -0.65 0.10 -1 -0.35 -1 -0.40 0 -1.45 -0.55 -2.40 -1.25 -1.30 -0.95 -1.50 -1.30 -0.90 -1.50 0.45 -0.20 0.95 -0.80 1.10 -1.40 0.30 -1.05 0.35 -1.05 1.05 -0.15 0.40 0.50 1.40 0.95 2.25 1 0.85 0.05 1.50 0.30 1.50 0.70 0 0.75 0 0.75 -2.10 -0.10 -1.05 -0.45 -1.95 -0.55 -2.45 -0.30 -1.05 0.70 0.55 2.15 2.50 2.20 0.85 0.05 1.55 0.10 1.55 0.15 0 0.05 -0.25 0.70 -0.60 1.40 -0.65 1.50 -1.60 1.70 -1.15 0.25z"/>
  <path d="M22.80 21.50 c-0.40 -3.05 0.20 -13 0.75 -13 0.25 0 0.45 3.50 0.45 7.75 0 7.65 -0.55 10.10 -1.20 5.25z"/>
  <path d="M19.75 17.50 c-0.15 -0.25 -0.05 -0.90 0.20 -1.35 0.45 -0.80 0.50 -0.70 0.55 0.50 0 1.40 -0.25 1.70 -0.75 0.85z"/>
  <path d="M11.25 5.50 c0.15 -0.25 0.65 -0.50 1.05 -0.50 0.40 0 0.60 0.25 0.45 0.50 -0.15 0.30 -0.65 0.50 -1.05 0.50 -0.40 0 -0.60 -0.20 -0.45 -0.50z"/>
 </g>
</svg>