<?xml version="1.0" encoding="UTF-8"?>
<svg version="1.1" xmlns="http://www.w3.org/2000/svg" width="24" height="24">
<path d="M0 0 C0.66 0 1.32 0 2 0 C1.84660156 0.6290625 1.69320313 1.258125 1.53515625 1.90625 C0.50935618 7.36714867 0.50935618 7.36714867 2.4921875 12.375 C3.7611483 13.76117404 5.07449911 15.10832792 6.43359375 16.40625 C8 18 8 18 8 20 C5.36 20 2.72 20 0 20 C-2.28571429 4.57142857 -2.28571429 4.57142857 0 0 Z " fill="#000000" transform="translate(2,3)"/>
<path d="M0 0 C0.33 0 0.66 0 1 0 C1 6.6 1 13.2 1 20 C-0.32 19.67 -1.64 19.34 -3 19 C-2.8453125 18.48824219 -2.690625 17.97648437 -2.53125 17.44921875 C-1.57452706 13.03844462 -1.54058841 8.51627396 -1.28125 4.01953125 C-1 1 -1 1 0 0 Z " fill="#000000" transform="translate(22,3)"/>
<path d="M0 0 C0.68707555 2.49064888 1 4.37886292 1 7 C-0.32 7 -1.64 7 -3 7 C-3.33 7.66 -3.66 8.32 -4 9 C-5.97888961 9.72693904 -7.97954558 10.39816251 -10 11 C-10 10.01 -10 9.02 -10 8 C-10.99 8 -11.98 8 -13 8 C-13.33 7.34 -13.66 6.68 -14 6 C-11.68801357 2.53202035 -10.87024503 2.37569231 -7 1.3125 C-5.6696875 0.93544922 -5.6696875 0.93544922 -4.3125 0.55078125 C-2 0 -2 0 0 0 Z " fill="#000000" transform="translate(18,3)"/>
<path d="M0 0 C3 1 3 1 4 2 C4.99 1.67 5.98 1.34 7 1 C6.67 2.65 6.34 4.3 6 6 C4.68 6 3.36 6 2 6 C0.32774271 6.30404678 -1.34080104 6.63128912 -3 7 C-3.66 6.01 -4.32 5.02 -5 4 C-4.360625 3.71125 -3.72125 3.4225 -3.0625 3.125 C-0.84793921 2.17176549 -0.84793921 2.17176549 0 0 Z " fill="#000000" transform="translate(13,13)"/>
</svg>
