<?xml version="1.0" encoding="UTF-8"?>
<svg version="1.1" xmlns="http://www.w3.org/2000/svg" width="50" height="50">
<path d="M0 0 C16.5 0 33 0 50 0 C50 16.5 50 33 50 50 C33.5 50 17 50 0 50 C0 33.5 0 17 0 0 Z " fill="#FBFBFB" transform="translate(0,0)"/>
<path d="M0 0 C0 3.60573896 -0.81707462 4.41336566 -3 7.1875 C-3.556875 7.90292969 -4.11375 8.61835938 -4.6875 9.35546875 C-5.120625 9.89816406 -5.55375 10.44085938 -6 11 C-3.69 10.34 -1.38 9.68 1 9 C0.175 9.78375 -0.65 10.5675 -1.5 11.375 C-4.22988506 13.63721264 -4.22988506 13.63721264 -4 16 C-2.03852126 17.38938077 -0.03833424 18.7260411 2 20 C-1 21 -1 21 -5 21 C-3.35 21.66 -1.7 22.32 0 23 C0 23.66 0 24.32 0 25 C-1.65 25 -3.3 25 -5 25 C-5 25.66 -5 26.32 -5 27 C-3.35 27 -1.7 27 0 27 C0.495 29.97 0.495 29.97 1 33 C2.30339391 26.55843342 2.33369957 20.07130794 2.51757812 13.5234375 C2.55173828 12.6159375 2.58589844 11.7084375 2.62109375 10.7734375 C2.65867798 9.54246338 2.65867798 9.54246338 2.69702148 8.28662109 C3.02365164 5.82149778 3.76952258 4.14464307 5 2 C5.495 3.98 5.495 3.98 6 6 C6.66 6 7.32 6 8 6 C8.10910892 11.37058374 7.9828015 16.64838337 7.5 22 C6.7917695 30.3291897 6.91564389 38.64874502 7 47 C4.03 47 1.06 47 -2 47 C-1.67 45.68 -1.34 44.36 -1 43 C-2.3921875 42.814375 -2.3921875 42.814375 -3.8125 42.625 C-7 42 -7 42 -10 40 C-10 39.34 -10 38.68 -10 38 C-10.804375 38.495 -10.804375 38.495 -11.625 39 C-14.72046073 40.30335189 -16.66574641 40.47632194 -20 40 C-22.875 37.625 -22.875 37.625 -25 35 C-25 34.34 -25 33.68 -25 33 C-23.7625 32.62875 -22.525 32.2575 -21.25 31.875 C-16.91661034 30.25863796 -15.0318118 28.24030289 -13 24 C-13.33 23.01 -13.66 22.02 -14 21 C-14.61488281 21.44472656 -15.22976562 21.88945312 -15.86328125 22.34765625 C-17.07564453 23.19650391 -17.07564453 23.19650391 -18.3125 24.0625 C-19.11300781 24.63097656 -19.91351563 25.19945313 -20.73828125 25.78515625 C-21.85783203 26.38650391 -21.85783203 26.38650391 -23 27 C-23.99 26.67 -24.98 26.34 -26 26 C-26 25.34 -26 24.68 -26 24 C-25.34 24 -24.68 24 -24 24 C-23.67 23.01 -23.34 22.02 -23 21 C-21.34051852 19.98812105 -19.67419438 18.9873454 -18 18 C-18 17.34 -18 16.68 -18 16 C-18.83144531 16.30035156 -19.66289062 16.60070312 -20.51953125 16.91015625 C-21.60621094 17.29042969 -22.69289063 17.67070312 -23.8125 18.0625 C-24.89144531 18.44535156 -25.97039063 18.82820313 -27.08203125 19.22265625 C-30 20 -30 20 -33 19 C-31.02 14.545 -31.02 14.545 -29 10 C-28.01 10.66 -27.02 11.32 -26 12 C-25.030625 11.195625 -24.06125 10.39125 -23.0625 9.5625 C-20.16805932 7.47013324 -18.24518194 6.71442948 -14.6875 6.5625 C-8.87037501 6.26161422 -4.70167346 3.20970192 0 0 Z " fill="#F8F8F8" transform="translate(41,2)"/>
<path d="M0 0 C0 3.60573896 -0.81707462 4.41336566 -3 7.1875 C-3.556875 7.90292969 -4.11375 8.61835938 -4.6875 9.35546875 C-5.120625 9.89816406 -5.55375 10.44085938 -6 11 C-3.69 10.34 -1.38 9.68 1 9 C0.175 9.78375 -0.65 10.5675 -1.5 11.375 C-4.22988506 13.63721264 -4.22988506 13.63721264 -4 16 C-2.03852126 17.38938077 -0.03833424 18.7260411 2 20 C-2.25061356 21.41687119 -4.71851625 20.19320039 -9 19 C-9 20.65 -9 22.3 -9 24 C-10.65 23.01 -12.3 22.02 -14 21 C-14.61488281 21.44472656 -15.22976562 21.88945312 -15.86328125 22.34765625 C-17.07564453 23.19650391 -17.07564453 23.19650391 -18.3125 24.0625 C-19.11300781 24.63097656 -19.91351563 25.19945313 -20.73828125 25.78515625 C-21.85783203 26.38650391 -21.85783203 26.38650391 -23 27 C-23.99 26.67 -24.98 26.34 -26 26 C-26 25.34 -26 24.68 -26 24 C-25.34 24 -24.68 24 -24 24 C-23.67 23.01 -23.34 22.02 -23 21 C-21.34051852 19.98812105 -19.67419438 18.9873454 -18 18 C-18 17.34 -18 16.68 -18 16 C-18.83144531 16.30035156 -19.66289062 16.60070312 -20.51953125 16.91015625 C-21.60621094 17.29042969 -22.69289063 17.67070312 -23.8125 18.0625 C-24.89144531 18.44535156 -25.97039063 18.82820313 -27.08203125 19.22265625 C-30 20 -30 20 -33 19 C-31.02 14.545 -31.02 14.545 -29 10 C-28.01 10.66 -27.02 11.32 -26 12 C-25.030625 11.195625 -24.06125 10.39125 -23.0625 9.5625 C-20.16805932 7.47013324 -18.24518194 6.71442948 -14.6875 6.5625 C-8.87037501 6.26161422 -4.70167346 3.20970192 0 0 Z " fill="#393939" transform="translate(41,2)"/>
<path d="M0 0 C-0.99 0.495 -0.99 0.495 -2 1 C-5.65770417 9.22315974 -7.16714232 16.65059768 -5.25 25.4375 C-3.75606389 28.50006903 -2.95266428 28.54483391 0 30 C2.0703125 31.734375 2.0703125 31.734375 4.125 33.75 C4.80820312 34.40484375 5.49140625 35.0596875 6.1953125 35.734375 C8 38 8 38 10 44 C3.4 44 -3.2 44 -10 44 C-9.34 42.02 -8.68 40.04 -8 38 C-7.89282213 35.74816072 -7.89282213 35.74816072 -8.25 33.625 C-8.35699219 32.85285156 -8.46398437 32.08070312 -8.57421875 31.28515625 C-8.96899864 29.16638342 -9.48019042 27.13619238 -10.0625 25.0625 C-12.11825703 17.21324589 -11.61958523 9.31618292 -8 2 C-5.28344444 -0.97944804 -3.76180448 -1.47785176 0 0 Z " fill="#343434" transform="translate(12,5)"/>
<path d="M0 0 C0.66 0.33 1.32 0.66 2 1 C1.49607061 5.40938215 0.0379639 7.78843816 -3 11 C-6.05975443 13.00796384 -7.14485886 13 -11 13 C-9.39262043 15.26924175 -8.04916761 17.16484468 -6 19 C-2.41706078 19.51184846 0.55726224 19.05930393 4 18 C4 18.66 4 19.32 4 20 C5.98 20.66 7.96 21.32 10 22 C9.67 23.65 9.34 25.3 9 27 C7.865625 26.979375 6.73125 26.95875 5.5625 26.9375 C2.18424326 26.58422523 2.18424326 26.58422523 1 28 C-1.33297433 28.04092937 -3.66705225 28.04241723 -6 28 C-6.09152344 27.26394531 -6.18304687 26.52789062 -6.27734375 25.76953125 C-7.11638828 22.55394976 -8.31288392 21.10072452 -10.5625 18.6875 C-11.20316406 17.99011719 -11.84382812 17.29273437 -12.50390625 16.57421875 C-12.99761719 16.05472656 -13.49132813 15.53523438 -14 15 C-12.25 10.125 -12.25 10.125 -10 9 C-9.67 8.01 -9.34 7.02 -9 6 C-6.93359375 4.39453125 -6.93359375 4.39453125 -4.4375 2.8125 C-3.19806641 2.01779297 -3.19806641 2.01779297 -1.93359375 1.20703125 C-1.29550781 0.80871094 -0.65742188 0.41039063 0 0 Z " fill="#E9E9E9" transform="translate(27,22)"/>
<path d="M0 0 C0.66 0.33 1.32 0.66 2 1 C2 1.99 2 2.98 2 4 C2.66 4 3.32 4 4 4 C4.10910892 9.37058374 3.9828015 14.64838337 3.5 20 C2.7917695 28.3291897 2.91564389 36.64874502 3 45 C0.03 45 -2.94 45 -6 45 C-5.79503906 44.2265625 -5.59007812 43.453125 -5.37890625 42.65625 C-4.97478516 41.09390625 -4.97478516 41.09390625 -4.5625 39.5 C-4.29566406 38.4790625 -4.02882812 37.458125 -3.75390625 36.40625 C-1.92484359 28.14229852 -1.70923492 19.85284615 -1.39453125 11.42578125 C-1.35714844 10.52730469 -1.31976563 9.62882813 -1.28125 8.703125 C-1.23581055 7.49124512 -1.23581055 7.49124512 -1.18945312 6.25488281 C-1.00587992 4.06998317 -0.59559673 2.10629046 0 0 Z " fill="#353535" transform="translate(45,4)"/>
<path d="M0 0 C2.5 1.125 2.5 1.125 5 3 C5.62167265 6.57461775 5.24787929 8.48063387 3.6875 11.75 C1.46288736 14.71615019 -0.19380348 15.87731792 -3.875 16.4375 C-8.02581961 15.85638525 -9.40975367 14.19971606 -12 11 C-12 10.34 -12 9.68 -12 9 C-10.7625 8.62875 -9.525 8.2575 -8.25 7.875 C-3.72162585 6.21299034 -2.23541939 4.19141135 0 0 Z " fill="#343434" transform="translate(28,26)"/>
<path d="M0 0 C1.89492188 0.01353516 1.89492188 0.01353516 3.828125 0.02734375 C4.79234375 0.03894531 5.7565625 0.05054688 6.75 0.0625 C6.75 3.0325 6.75 6.0025 6.75 9.0625 C5.76 8.7325 4.77 8.4025 3.75 8.0625 C3.2859375 7.0725 3.2859375 7.0725 2.8125 6.0625 C1.9256991 3.93556169 1.9256991 3.93556169 -0.0625 3.125 C-2.42529425 2.85188488 -2.42529425 2.85188488 -4.6875 4.625 C-5.533125 5.099375 -6.37875 5.57375 -7.25 6.0625 C-10.0625 5.25 -10.0625 5.25 -12.25 4.0625 C-12.58 5.3825 -12.91 6.7025 -13.25 8.0625 C-14.24 7.4025 -15.23 6.7425 -16.25 6.0625 C-10.8017225 0.16019938 -7.89632409 -0.07311411 0 0 Z " fill="#F9F9F9" transform="translate(43.25,-0.0625)"/>
<path d="M0 0 C0.33 0.99 0.66 1.98 1 3 C0.34 3.66 -0.32 4.32 -1 5 C-1.66 4.67 -2.32 4.34 -3 4 C-3.33 4.99 -3.66 5.98 -4 7 C-4.66 7.66 -5.32 8.32 -6 9 C-8.5 8.8125 -8.5 8.8125 -11 8 C-11.66 7.01 -12.32 6.02 -13 5 C-8.71146306 3.11304374 -4.47238653 1.41807378 0 0 Z " fill="#F5F5F5" transform="translate(23,17)"/>
<path d="M0 0 C3.0831351 1.19899698 6.06279492 2.47700477 9 4 C8.67 4.99 8.34 5.98 8 7 C5.75 7.3125 5.75 7.3125 3 7 C0.6875 4.5 0.6875 4.5 -1 2 C-0.67 1.34 -0.34 0.68 0 0 Z " fill="#343434" transform="translate(28,42)"/>
<path d="M0 0 C2.64 0.33 5.28 0.66 8 1 C7.67 2.65 7.34 4.3 7 6 C4.69 5.67 2.38 5.34 0 5 C0 3.35 0 1.7 0 0 Z " fill="#353535" transform="translate(34,33)"/>
<path d="M0 0 C2.64 0.66 5.28 1.32 8 2 C7.67 3.32 7.34 4.64 7 6 C1.25 4.125 1.25 4.125 -1 3 C-0.67 2.01 -0.34 1.02 0 0 Z " fill="#343434" transform="translate(32,39)"/>
<path d="M0 0 C2.475 0.99 2.475 0.99 5 2 C4.67 2.99 4.34 3.98 4 5 C1.525 4.01 1.525 4.01 -1 3 C-1.33 4.32 -1.66 5.64 -2 7 C-2.99 6.34 -3.98 5.68 -5 5 C-3.35 3.35 -1.7 1.7 0 0 Z " fill="#A0A0A0" transform="translate(32,1)"/>
<path d="M0 0 C0.40774658 0.4844458 0.81549316 0.9688916 1.2355957 1.46801758 C3.38133649 3.33110371 4.42659846 3.41229073 7.23046875 3.51171875 C8.43413086 3.56489258 8.43413086 3.56489258 9.66210938 3.61914062 C10.49548828 3.64169922 11.32886719 3.66425781 12.1875 3.6875 C13.4549707 3.73874023 13.4549707 3.73874023 14.74804688 3.79101562 C16.83156649 3.87341471 18.91576216 3.93838645 21 4 C21 4.33 21 4.66 21 5 C14.07 5 7.14 5 0 5 C0 3.35 0 1.7 0 0 Z " fill="#FCFCFC" transform="translate(0,45)"/>
<path d="M0 0 C2.97 0.495 2.97 0.495 6 1 C6.33 2.32 6.66 3.64 7 5 C4.69 4.67 2.38 4.34 0 4 C0 2.68 0 1.36 0 0 Z " fill="#353535" transform="translate(35,28)"/>
<path d="M0 0 C2.31 0.66 4.62 1.32 7 2 C7 2.66 7 3.32 7 4 C5.02 4 3.04 4 1 4 C0.67 2.68 0.34 1.36 0 0 Z " fill="#333333" transform="translate(34,23)"/>
<path d="M0 0 C0.99 0.33 1.98 0.66 3 1 C2.67 1.99 2.34 2.98 2 4 C-0.31 4.33 -2.62 4.66 -5 5 C-4.67 4.34 -4.34 3.68 -4 3 C-3.01 3 -2.02 3 -1 3 C-0.67 2.01 -0.34 1.02 0 0 Z " fill="#F3F3F3" transform="translate(31,4)"/>
</svg>
