<?xml version="1.0" encoding="UTF-8"?>
<svg xmlns="http://www.w3.org/2000/svg" xmlns:xlink="http://www.w3.org/1999/xlink" width="50px" height="50px" viewBox="0 0 50 50" version="1.1">
<g id="surface1">
<path style=" stroke:none;fill-rule:nonzero;fill:rgb(6.666667%,7.058824%,6.666667%);fill-opacity:1;" d="M 0.207031 29.6875 C 0 18.542969 0.207031 8.230469 0.625 6.769531 C 1.457031 3.542969 5.832031 1.042969 10.9375 1.042969 C 14.375 1.042969 14.582031 1.25 14.582031 4.269531 C 14.582031 6.25 13.855469 8.125 12.8125 8.957031 C 11.042969 10.207031 11.042969 10.3125 13.125 10.417969 C 14.269531 10.417969 16.144531 9.480469 17.1875 8.332031 C 18.230469 7.1875 20.417969 6.25 22.082031 6.25 C 24.269531 6.25 25 5.730469 25 4.269531 C 25 3.230469 25.625 1.875 26.355469 1.25 C 28.019531 -0.105469 44.792969 -0.3125 44.792969 1.042969 C 44.792969 1.667969 45.9375 2.082031 47.394531 2.082031 L 50 2.082031 L 50 50 L 0.417969 50 Z M 12.5 27.605469 C 12.5 25.9375 11.875 25 10.9375 25 C 9.0625 25 9.0625 25.519531 10.417969 28.230469 C 11.875 30.9375 12.5 30.730469 12.5 27.605469 Z M 12.5 27.605469 "/>
<path style=" stroke:none;fill-rule:nonzero;fill:rgb(18.431373%,18.431373%,18.431373%);fill-opacity:1;" d="M 1.144531 39.894531 C 1.144531 34.269531 0.730469 24.375 0.417969 17.917969 L -0.207031 6.25 L 3.019531 5.625 C 4.792969 5.207031 6.25 4.269531 6.25 3.542969 C 6.25 2.605469 7.5 2.082031 9.894531 2.082031 C 13.332031 2.082031 13.542969 2.292969 13.542969 5.730469 C 13.542969 9.269531 13.644531 9.375 18.019531 9.375 L 22.394531 9.480469 L 18.75 12.707031 C 15.417969 15.730469 15.3125 15.832031 18.230469 14.0625 C 20 13.019531 22.5 11.457031 23.957031 10.730469 C 25.417969 10 25.9375 9.375 25.3125 9.375 C 24.582031 9.375 23.957031 8.644531 23.957031 7.707031 C 23.957031 6.5625 24.792969 6.25 27.292969 6.457031 C 30 6.667969 30.9375 6.25 31.769531 4.480469 C 32.394531 3.019531 33.644531 2.082031 35.105469 2.082031 C 36.457031 2.082031 37.5 1.667969 37.5 1.042969 C 37.5 0.519531 39.0625 0 41.042969 0 C 44.167969 0 44.582031 0.3125 45 3.4375 C 45.207031 5.207031 45.105469 10.3125 44.792969 14.582031 C 44.375 18.855469 44.0625 21.144531 43.957031 19.582031 C 43.75 17.292969 43.230469 16.667969 41.457031 16.769531 C 40.105469 16.769531 39.6875 17.082031 40.417969 17.394531 C 41.875 17.917969 42.1875 20.832031 40.730469 20.832031 C 40.105469 20.832031 39.375 20.3125 39.0625 19.6875 C 38.332031 18.542969 32.605469 19.375 30.625 20.9375 C 30 21.457031 29.167969 21.5625 28.855469 21.25 C 28.542969 20.832031 26.144531 21.769531 23.542969 23.332031 C 18.332031 26.355469 17.1875 26.667969 18.332031 24.792969 C 18.855469 23.855469 18.542969 23.855469 17.394531 24.894531 C 16.457031 25.625 15.625 26.769531 15.625 27.292969 C 15.625 28.855469 20.9375 27.292969 23.4375 25.105469 C 27.082031 21.875 28.230469 21.5625 29.6875 23.542969 C 31.144531 25.417969 31.144531 25.417969 31.25 23.125 C 31.25 21.042969 31.667969 20.832031 35 21.144531 C 36.980469 21.355469 39.582031 22.292969 40.730469 23.230469 C 41.769531 24.269531 43.125 25 43.644531 25 C 44.167969 25 44.792969 26.042969 45.207031 27.394531 C 46.042969 30.625 45.9375 31.457031 44.894531 30.832031 C 43.957031 30.207031 42.394531 40.625 43.230469 41.5625 C 43.542969 41.769531 43.75 41.042969 43.75 39.792969 C 43.75 38.542969 44.269531 37.5 44.792969 37.5 C 45.417969 37.5 45.832031 39.894531 45.832031 42.707031 C 45.832031 45.625 46.25 47.917969 46.667969 47.917969 C 47.082031 47.917969 47.292969 44.894531 47.082031 41.144531 C 46.5625 33.644531 47.605469 24.6875 48.855469 25.417969 C 49.269531 25.730469 49.582031 31.25 49.582031 37.707031 L 49.480469 49.480469 L 39.375 49.792969 C 31.355469 50 29.167969 49.792969 29.167969 48.644531 C 29.167969 47.707031 30.207031 47.394531 32.8125 47.707031 C 37.394531 48.230469 37.5 46.769531 33.125 44.792969 C 31.25 44.0625 29.375 43.230469 28.957031 42.917969 C 28.4375 42.707031 28.125 43.855469 28.125 45.519531 C 28.019531 48.019531 27.917969 48.125 26.980469 46.667969 C 26.457031 45.625 25.207031 44.792969 24.269531 44.792969 C 23.019531 44.792969 22.917969 45.105469 23.855469 46.25 C 25.9375 48.75 21.875 50 11.144531 50 L 1.355469 50 Z M 20.832031 46.667969 C 20.832031 46.144531 17.917969 42.5 14.269531 38.75 C 4.894531 28.75 3.75 26.769531 4.480469 20.417969 C 4.792969 17.082031 4.6875 15.832031 4.167969 17.1875 C 2.8125 20.3125 2.917969 16.980469 4.375 12.292969 C 5.105469 9.6875 6.042969 8.4375 6.980469 8.75 C 7.707031 9.0625 8.332031 8.644531 8.332031 7.8125 C 8.332031 6.980469 9.167969 5.832031 10.207031 5.3125 C 12.707031 3.855469 11.144531 3.855469 7.8125 5.417969 C 2.082031 8.019531 0.519531 19.792969 3.75 34.375 C 5.105469 40.105469 5.207031 42.394531 4.269531 44.375 C 3.644531 45.832031 3.125 47.292969 3.125 47.707031 C 3.125 48.125 7.082031 48.332031 11.980469 48.125 C 17.082031 47.917969 20.832031 47.292969 20.832031 46.667969 Z M 37.8125 42.8125 C 37.5 41.457031 36.667969 41.042969 35.3125 41.355469 C 34.269531 41.667969 33.332031 41.355469 33.332031 40.730469 C 33.332031 40.105469 32.917969 39.582031 32.292969 39.582031 C 30.105469 39.582031 31.355469 41.457031 34.6875 43.125 C 36.457031 43.957031 38.125 44.792969 38.230469 44.792969 C 38.230469 44.792969 38.125 43.957031 37.8125 42.8125 Z M 28.230469 40.3125 C 30.207031 38.855469 32.292969 35.105469 32.292969 33.125 C 32.292969 32.394531 31.457031 33.332031 30.417969 35.3125 C 28.125 40 23.644531 41.667969 20.730469 38.957031 C 18.542969 36.980469 18.019531 37.8125 20.105469 40.105469 C 21.667969 41.875 25.9375 42.082031 28.230469 40.3125 Z M 40.625 37.707031 C 40.625 36.042969 38.019531 34.375 35.519531 34.375 L 32.8125 34.480469 L 35.3125 36.457031 C 37.8125 38.542969 40.625 39.269531 40.625 37.707031 Z M 21.875 35.417969 C 25.3125 33.644531 28.125 30.730469 28.125 28.855469 C 28.125 28.644531 26.457031 30 24.375 31.875 C 22.394531 33.855469 19.792969 35.417969 18.644531 35.417969 C 17.605469 35.417969 16.667969 35.9375 16.667969 36.457031 C 16.667969 37.917969 17.1875 37.8125 21.875 35.417969 Z M 15.3125 30.832031 C 14.375 30.105469 13.542969 28.230469 13.542969 26.667969 C 13.542969 24.6875 13.019531 23.957031 11.457031 23.957031 C 10.3125 23.957031 9.375 23.4375 9.375 22.917969 C 9.375 21.667969 12.292969 20.3125 18.4375 18.75 C 20.832031 18.125 23.125 17.292969 23.4375 16.769531 C 23.75 16.25 21.769531 16.457031 19.0625 17.292969 C 12.8125 19.167969 11.457031 19.167969 11.355469 16.980469 C 11.355469 15.832031 10.832031 16.25 10.207031 18.125 C 9.375 20.3125 8.855469 20.730469 8.230469 19.6875 C 7.5 18.542969 7.292969 18.542969 7.292969 20 C 7.292969 20.9375 6.667969 21.980469 6.042969 22.1875 C 5.207031 22.5 5.417969 22.8125 6.5625 22.8125 C 7.707031 22.917969 8.332031 23.75 8.332031 25.417969 C 8.332031 27.917969 9.894531 29.6875 13.957031 31.769531 C 16.769531 33.332031 17.8125 32.605469 15.3125 30.832031 Z M 40.105469 31.25 C 41.980469 30.519531 41.980469 30.417969 39.269531 29.6875 C 36.144531 28.855469 34.792969 29.480469 35.9375 31.144531 C 36.667969 32.5 37.1875 32.5 40.105469 31.25 Z M 40.625 26.144531 C 40.625 25.207031 37.1875 23.957031 34.582031 23.957031 C 33.542969 23.957031 33.542969 24.269531 34.582031 25.519531 C 36.042969 27.1875 40.625 27.605469 40.625 26.144531 Z M 40.105469 12.5 C 40.519531 11.875 39.582031 11.980469 38.125 12.707031 C 36.667969 13.332031 35.417969 14.269531 35.417969 14.792969 C 35.417969 15.832031 39.167969 14.0625 40.105469 12.5 Z M 31.980469 9.6875 C 35 8.019531 36.25 7.917969 34.582031 9.582031 C 33.855469 10.3125 33.332031 11.355469 33.332031 11.875 C 33.332031 12.5 34.582031 11.457031 36.042969 9.582031 C 38.230469 6.875 39.0625 6.355469 39.792969 7.5 C 40.625 8.542969 40.730469 8.4375 40.3125 7.1875 C 40 6.25 40.3125 4.894531 40.9375 4.167969 C 41.875 3.125 41.875 2.917969 40.519531 3.4375 C 37.605469 4.375 27.605469 11.144531 26.042969 13.125 C 24.6875 14.894531 24.894531 14.792969 27.082031 13.019531 C 28.542969 11.875 30.730469 10.3125 31.980469 9.6875 Z M 31.980469 9.6875 "/>
<path style=" stroke:none;fill-rule:nonzero;fill:rgb(18.431373%,18.431373%,18.431373%);fill-opacity:1;" d="M 5.519531 38.855469 L 5.3125 30.9375 L 12.082031 37.605469 C 15.730469 41.25 18.75 44.792969 18.75 45.519531 C 18.75 46.457031 16.875 46.875 12.292969 46.875 L 5.730469 46.875 Z M 5.519531 38.855469 "/>
<path style=" stroke:none;fill-rule:nonzero;fill:rgb(18.431373%,18.431373%,18.431373%);fill-opacity:1;" d="M 47.707031 20.105469 C 47.394531 19.0625 47.082031 15.3125 46.980469 11.769531 C 46.769531 6.355469 46.980469 5.207031 48.332031 5.207031 C 49.6875 5.207031 50 6.667969 50 13.542969 C 50 21.144531 48.855469 24.480469 47.707031 20.105469 Z M 47.707031 20.105469 "/>
<path style=" stroke:none;fill-rule:nonzero;fill:rgb(33.333334%,33.333334%,33.333334%);fill-opacity:1;" d="M 17.707031 48.957031 C 17.707031 48.4375 18.4375 47.917969 19.269531 47.917969 C 22.082031 47.917969 20.832031 45.417969 15 39.269531 L 9.269531 33.230469 L 13.230469 33.542969 C 15.9375 33.75 17.082031 34.269531 16.875 35.3125 C 16.355469 37.605469 20.9375 41.667969 23.957031 41.667969 C 27.707031 41.667969 32.8125 36.769531 32.8125 33.125 C 32.707031 27.394531 30.730469 26.769531 17.394531 28.75 L 12.394531 29.480469 L 12.707031 25.417969 C 13.019531 21.875 13.4375 21.355469 16.667969 20.417969 C 18.644531 19.894531 20.519531 19.0625 20.832031 18.75 C 21.144531 18.332031 22.1875 17.8125 23.230469 17.394531 C 26.25 16.25 25.3125 19.582031 22.082031 21.25 C 18.644531 23.019531 15 26.875 15.9375 27.707031 C 17.082031 28.855469 21.25 27.1875 24.375 24.480469 C 26.042969 23.019531 27.605469 21.875 27.707031 21.875 C 27.917969 21.875 29.375 23.230469 30.9375 24.894531 C 33.332031 27.292969 34.480469 27.707031 37.292969 27.394531 C 41.25 26.769531 41.667969 25.3125 38.019531 24.375 C 34.167969 23.4375 34.792969 21.457031 38.644531 22.292969 C 41.355469 22.8125 41.769531 22.605469 41.25 21.25 C 40.9375 20.3125 40.625 19.375 40.625 19.167969 C 40.625 18.957031 39.6875 18.75 38.644531 18.75 C 34.582031 18.75 35 15.9375 39.375 13.644531 C 42.707031 11.875 41.5625 11.042969 38.125 12.605469 C 36.667969 13.332031 35.105469 13.542969 34.792969 13.230469 C 33.75 12.292969 39.582031 5.105469 40.730469 5.730469 C 41.25 6.144531 41.667969 5.832031 41.667969 5.3125 C 41.667969 4.6875 43.332031 4.167969 45.3125 4.167969 C 48.855469 4.167969 48.957031 4.269531 48.855469 8.125 L 48.75 11.980469 L 47.394531 8.332031 C 46.667969 6.355469 45.9375 5.519531 45.9375 6.5625 C 45.832031 7.5 45.519531 8.332031 45.105469 8.332031 C 44.582031 8.332031 44.167969 14.582031 44.0625 22.1875 C 43.957031 29.6875 43.230469 38.230469 42.394531 41.042969 C 41.042969 46.25 38.125 49.375 36.667969 47.394531 C 35.519531 45.832031 28.957031 42.605469 28.332031 43.230469 C 27.917969 43.542969 28.230469 44.792969 28.957031 45.832031 C 30.625 48.4375 29.6875 48.4375 26.875 45.832031 C 24.6875 43.75 21.769531 44.0625 23.855469 46.144531 C 26.144531 48.4375 25.105469 50 21.355469 50 C 19.375 50 17.707031 49.582031 17.707031 48.957031 Z M 39.0625 41.769531 C 37.5 40.3125 31.25 39.269531 31.25 40.417969 C 31.25 41.980469 37.917969 44.792969 39.0625 43.644531 C 39.6875 43.019531 39.6875 42.394531 39.0625 41.769531 Z M 40.625 36.457031 C 40.625 34.792969 39.894531 34.375 36.980469 34.375 C 31.457031 34.375 33.542969 37.917969 39.375 38.4375 C 40 38.4375 40.625 37.605469 40.625 36.457031 Z M 41.144531 30.3125 C 39.480469 28.75 36.144531 28.542969 35.730469 30 C 35.105469 31.5625 39.6875 33.4375 41.144531 32.1875 C 41.769531 31.5625 41.769531 30.9375 41.144531 30.3125 Z M 41.144531 30.3125 "/>
<path style=" stroke:none;fill-rule:nonzero;fill:rgb(33.333334%,33.333334%,33.333334%);fill-opacity:1;" d="M 46.875 33.125 C 46.875 30.519531 48.125 27.082031 49.0625 27.082031 C 49.582031 27.082031 50 28.75 50 30.730469 C 50 33.230469 49.480469 34.375 48.4375 34.375 C 47.605469 34.375 46.875 33.75 46.875 33.125 Z M 46.875 33.125 "/>
<path style=" stroke:none;fill-rule:nonzero;fill:rgb(33.333334%,33.333334%,33.333334%);fill-opacity:1;" d="M 0.730469 26.355469 C -0.417969 25.3125 -0.105469 13.542969 0.9375 13.542969 C 1.457031 13.542969 1.875 16.5625 1.875 20.3125 C 1.875 24.0625 1.667969 27.082031 1.5625 27.082031 C 1.457031 27.082031 1.042969 26.769531 0.730469 26.355469 Z M 0.730469 26.355469 "/>
<path style=" stroke:none;fill-rule:nonzero;fill:rgb(33.333334%,33.333334%,33.333334%);fill-opacity:1;" d="M 4.480469 25.519531 C 3.75 23.542969 4.792969 16.5625 5.9375 15.730469 C 6.355469 15.417969 6.769531 14.6875 6.875 14.0625 C 6.980469 11.25 8.855469 6.667969 10.3125 5.417969 C 11.769531 4.167969 11.769531 4.0625 10.207031 4.582031 C 9.167969 4.894531 7.605469 5.519531 6.769531 5.832031 C 5.625 6.355469 5.207031 5.730469 5.207031 3.75 C 5.207031 1.355469 5.625 1.042969 8.957031 1.042969 L 12.8125 1.042969 L 12.292969 5.730469 C 11.769531 10.105469 11.875 10.417969 14.167969 10.417969 C 17.394531 10.417969 18.4375 12.5 16.042969 14.269531 C 14.375 15.519531 13.957031 15.417969 12.8125 13.957031 C 11.667969 12.394531 11.457031 12.5 10.832031 15 C 10.519531 16.457031 9.792969 17.707031 9.269531 17.707031 C 8.75 17.707031 8.332031 19.792969 8.332031 22.394531 C 8.332031 25.9375 7.917969 27.082031 6.769531 27.082031 C 5.832031 27.082031 4.894531 26.355469 4.480469 25.519531 Z M 4.480469 25.519531 "/>
<path style=" stroke:none;fill-rule:nonzero;fill:rgb(33.333334%,33.333334%,33.333334%);fill-opacity:1;" d="M 31.25 23.542969 C 31.25 22.707031 31.769531 21.667969 32.292969 21.355469 C 32.917969 21.042969 33.332031 21.667969 33.332031 22.8125 C 33.332031 24.0625 32.917969 25 32.292969 25 C 31.769531 25 31.25 24.375 31.25 23.542969 Z M 31.25 23.542969 "/>
<path style=" stroke:none;fill-rule:nonzero;fill:rgb(33.333334%,33.333334%,33.333334%);fill-opacity:1;" d="M 21.875 12.5 C 21.875 11.875 22.917969 10.9375 24.269531 10.417969 C 26.25 9.582031 26.355469 9.480469 24.582031 9.480469 C 23.4375 9.375 21.667969 10.105469 20.625 11.144531 C 18.855469 12.707031 18.75 12.707031 18.75 10.625 C 18.75 9.0625 19.375 8.332031 20.832031 8.332031 C 21.980469 8.332031 22.917969 7.917969 22.917969 7.292969 C 22.917969 6.144531 26.042969 5.9375 28.542969 6.875 C 30.625 7.707031 30.730469 9.375 28.75 9.375 C 28.019531 9.375 27.082031 10.3125 26.769531 11.457031 C 26.25 13.644531 21.875 14.480469 21.875 12.5 Z M 21.875 12.5 "/>
<path style=" stroke:none;fill-rule:nonzero;fill:rgb(33.333334%,33.333334%,33.333334%);fill-opacity:1;" d="M 32.5 5.625 C 31.769531 4.792969 31.457031 3.542969 31.875 2.8125 C 32.292969 2.1875 31.667969 2.5 30.417969 3.542969 C 28.125 5.519531 28.125 5.519531 28.125 2.8125 C 28.125 0.3125 28.542969 0 31.769531 0 C 35.105469 0 35.417969 0.207031 35.417969 3.019531 C 35.417969 6.667969 34.375 7.605469 32.5 5.625 Z M 32.5 5.625 "/>
<path style=" stroke:none;fill-rule:nonzero;fill:rgb(48.235294%,48.235294%,48.235294%);fill-opacity:1;" d="M 16.667969 48.957031 C 16.667969 48.4375 17.917969 47.917969 19.375 47.917969 L 22.082031 47.917969 L 20.207031 45.105469 C 19.167969 43.4375 17.082031 40.832031 15.417969 39.0625 C 12.1875 35.625 12.292969 35.9375 13.4375 28.957031 C 14.167969 24.167969 14.167969 23.957031 11.769531 23.957031 C 10.105469 23.957031 9.375 24.582031 9.375 26.042969 C 9.375 27.1875 9.894531 28.125 10.417969 28.125 C 11.042969 28.125 11.457031 29.582031 11.457031 31.355469 C 11.457031 35.519531 9.480469 34.894531 6.5625 29.6875 C 4.0625 25.105469 4.0625 18.542969 6.769531 13.230469 C 7.605469 11.457031 8.332031 9.269531 8.332031 8.332031 C 8.332031 6.769531 10.207031 5.207031 12.082031 5.207031 C 12.292969 5.207031 12.5 6.875 12.5 8.855469 C 12.5 10.832031 12.082031 12.5 11.457031 12.5 C 10.9375 12.5 10.417969 13.75 10.417969 15.207031 C 10.417969 16.667969 9.894531 18.75 9.375 19.894531 C 8.75 20.9375 8.4375 21.875 8.542969 21.875 C 8.75 21.875 12.5 20.730469 16.980469 19.375 C 21.355469 17.917969 25 17.1875 25 17.5 C 25 18.957031 23.332031 20.519531 19.582031 22.8125 C 15 25.519531 14.167969 28.644531 18.230469 27.917969 C 20.105469 27.5 20.832031 27.8125 20.832031 29.0625 C 20.832031 32.394531 19.480469 35.417969 18.125 35.417969 C 15.832031 35.417969 16.457031 37.082031 19.792969 39.894531 C 21.5625 41.355469 22.917969 43.230469 22.917969 44.167969 C 22.917969 45 23.4375 46.042969 23.957031 46.355469 C 24.582031 46.667969 25 47.707031 25 48.542969 C 25 49.582031 23.75 50 20.832031 50 C 18.542969 50 16.667969 49.582031 16.667969 48.957031 Z M 16.667969 48.957031 "/>
<path style=" stroke:none;fill-rule:nonzero;fill:rgb(48.235294%,48.235294%,48.235294%);fill-opacity:1;" d="M 30.207031 48.957031 C 30.207031 48.332031 30.832031 47.917969 31.5625 48.019531 C 34.269531 48.332031 36.457031 47.917969 36.457031 46.875 C 36.457031 46.355469 35.9375 45.832031 35.3125 45.832031 C 34.6875 45.832031 32.707031 44.792969 31.042969 43.542969 L 27.8125 41.355469 L 28.332031 44.0625 C 28.644531 45.625 28.542969 46.875 28.125 46.875 C 27.1875 46.875 23.4375 42.8125 24.0625 42.394531 C 24.269531 42.292969 25.730469 41.457031 27.292969 40.730469 C 28.957031 39.894531 30.832031 37.605469 31.769531 35.105469 C 33.332031 31.042969 33.332031 30.832031 31.355469 28.75 L 29.167969 26.667969 L 26.042969 30.207031 L 23.019531 33.855469 L 22.917969 30.105469 C 22.917969 25.207031 28.125 20.3125 29.375 24.167969 C 29.582031 24.792969 30.730469 25.417969 31.875 25.417969 C 35.105469 25.730469 36.5625 27.082031 35.9375 29.167969 C 35.519531 30.519531 36.042969 31.5625 37.707031 32.5 C 40.105469 33.75 40 33.855469 36.5625 34.375 C 33.125 34.894531 33.019531 35 34.792969 36.769531 C 37.917969 39.894531 40.3125 39.0625 40.9375 34.6875 C 41.25 32.082031 40.9375 30.3125 40 29.582031 C 37.8125 27.8125 38.230469 27.082031 41.144531 27.082031 C 43.4375 27.082031 43.75 27.5 43.75 30.832031 C 43.75 35 41.980469 43.4375 40.519531 46.144531 C 39.6875 47.707031 40.105469 47.917969 43.75 47.917969 L 48.019531 47.917969 L 47.292969 44.269531 C 46.769531 41.355469 46.980469 40.625 48.332031 40.625 C 49.582031 40.625 50 41.667969 50 45.3125 L 50 50 L 40.105469 50 C 33.957031 50 30.207031 49.582031 30.207031 48.957031 Z M 39.582031 43.230469 C 39.582031 41.457031 36.457031 39.582031 33.4375 39.582031 C 30.207031 39.582031 30.832031 41.144531 34.6875 43.125 C 38.855469 45.105469 39.582031 45.207031 39.582031 43.230469 Z M 39.582031 43.230469 "/>
<path style=" stroke:none;fill-rule:nonzero;fill:rgb(48.235294%,48.235294%,48.235294%);fill-opacity:1;" d="M 1.042969 43.230469 C 1.042969 40.3125 1.457031 39.582031 3.125 39.582031 C 5.417969 39.582031 5.832031 41.667969 4.167969 44.894531 C 2.5 48.019531 1.042969 47.292969 1.042969 43.230469 Z M 1.042969 43.230469 "/>
<path style=" stroke:none;fill-rule:nonzero;fill:rgb(48.235294%,48.235294%,48.235294%);fill-opacity:1;" d="M 0 28.957031 C 0 24.269531 0.207031 20.730469 0.417969 20.9375 C 0.9375 21.457031 4.167969 35 4.167969 36.5625 C 4.167969 37.082031 3.230469 37.5 2.082031 37.5 C 0.207031 37.5 0 36.769531 0 28.957031 Z M 0 28.957031 "/>
<path style=" stroke:none;fill-rule:nonzero;fill:rgb(48.235294%,48.235294%,48.235294%);fill-opacity:1;" d="M 31.25 23.4375 C 31.25 21.355469 34.167969 20.207031 35.730469 21.769531 C 37.082031 23.125 36.769531 23.4375 33.644531 24.375 C 31.875 25 31.25 24.6875 31.25 23.4375 Z M 31.25 23.4375 "/>
<path style=" stroke:none;fill-rule:nonzero;fill:rgb(48.235294%,48.235294%,48.235294%);fill-opacity:1;" d="M 37.082031 18.4375 C 35.417969 17.1875 35.417969 16.980469 37.394531 15.207031 C 39.582031 13.230469 39.582031 13.230469 39.582031 16.457031 C 39.582031 20.207031 39.582031 20.207031 37.082031 18.4375 Z M 37.082031 18.4375 "/>
<path style=" stroke:none;fill-rule:nonzero;fill:rgb(48.235294%,48.235294%,48.235294%);fill-opacity:1;" d="M 47.917969 14.894531 C 47.917969 12.082031 47.605469 8.855469 47.292969 7.605469 L 46.667969 5.3125 L 44.582031 7.605469 C 43.230469 9.167969 42.394531 9.480469 42.082031 8.644531 C 41.769531 7.917969 40.730469 7.292969 39.894531 7.292969 C 38.4375 7.292969 38.4375 6.980469 40.105469 5.207031 C 43.125 1.875 41.5625 1.980469 36.144531 5.625 C 32.707031 7.917969 29.792969 9.0625 26.875 9.167969 C 24.480469 9.269531 21.667969 10.105469 20.625 11.144531 C 18.4375 13.019531 18.230469 11.769531 20 7.8125 C 20.625 6.355469 21.980469 5.207031 23.125 5.207031 C 24.269531 5.207031 25 4.480469 25 3.125 C 25 1.5625 25.730469 1.042969 28.019531 1.042969 C 29.6875 1.042969 31.25 1.667969 31.667969 2.605469 C 32.5 4.894531 35.417969 4.480469 35.417969 2.082031 C 35.417969 0.3125 36.144531 0 40.625 0 C 43.542969 0 45.832031 0.519531 45.832031 1.042969 C 45.832031 1.667969 46.457031 2.082031 47.292969 2.082031 C 48.019531 2.082031 48.957031 3.542969 49.375 5.3125 C 50.417969 10.417969 50.105469 19.792969 48.957031 19.792969 C 48.4375 19.792969 47.917969 17.605469 47.917969 14.894531 Z M 31.144531 4.582031 C 31.457031 2.917969 31.25 2.8125 29.792969 4.0625 C 27.8125 5.730469 27.605469 7.605469 29.480469 7.082031 C 30.105469 6.769531 30.9375 5.730469 31.144531 4.582031 Z M 31.144531 4.582031 "/>
<path style=" stroke:none;fill-rule:nonzero;fill:rgb(48.235294%,48.235294%,48.235294%);fill-opacity:1;" d="M 22.5 12.082031 C 23.230469 10.105469 27.5 9.792969 26.875 11.769531 C 26.5625 12.394531 25.417969 13.125 24.167969 13.332031 C 22.5 13.644531 22.082031 13.230469 22.5 12.082031 Z M 22.5 12.082031 "/>
<path style=" stroke:none;fill-rule:nonzero;fill:rgb(48.235294%,48.235294%,48.235294%);fill-opacity:1;" d="M 34.375 12.707031 C 34.375 11.667969 36.667969 9.375 37.707031 9.375 C 39.269531 9.375 38.542969 12.292969 36.875 12.917969 C 34.6875 13.75 34.375 13.75 34.375 12.707031 Z M 34.375 12.707031 "/>
<path style=" stroke:none;fill-rule:nonzero;fill:rgb(48.235294%,48.235294%,48.235294%);fill-opacity:1;" d="M 3.125 5.730469 C 3.125 2.292969 3.332031 2.082031 6.769531 2.082031 C 8.75 2.082031 10.417969 2.605469 10.417969 3.125 C 10.417969 3.75 10 4.167969 9.480469 4.167969 C 9.0625 4.167969 7.394531 5.3125 5.832031 6.769531 L 3.125 9.269531 Z M 3.125 5.730469 "/>
<path style=" stroke:none;fill-rule:nonzero;fill:rgb(65.098041%,65.098041%,64.705884%);fill-opacity:1;" d="M 1.042969 47.394531 C 1.042969 45.9375 1.667969 44.792969 2.5 44.792969 C 3.4375 44.792969 3.75 45.625 3.332031 47.394531 C 2.707031 50.730469 1.042969 50.730469 1.042969 47.394531 Z M 1.042969 47.394531 "/>
<path style=" stroke:none;fill-rule:nonzero;fill:rgb(65.098041%,65.098041%,64.705884%);fill-opacity:1;" d="M 4.167969 48.957031 C 4.167969 48.332031 7.394531 47.917969 11.875 47.917969 C 16.144531 47.917969 20 48.4375 20.3125 48.957031 C 20.730469 49.582031 17.917969 50 12.605469 50 C 7.707031 50 4.167969 49.582031 4.167969 48.957031 Z M 4.167969 48.957031 "/>
<path style=" stroke:none;fill-rule:nonzero;fill:rgb(65.098041%,65.098041%,64.705884%);fill-opacity:1;" d="M 21.667969 47.917969 C 20.9375 45.417969 21.355469 43.957031 22.5 45 C 22.8125 45.417969 22.917969 46.769531 22.707031 48.125 L 22.394531 50.519531 Z M 21.667969 47.917969 "/>
<path style=" stroke:none;fill-rule:nonzero;fill:rgb(65.098041%,65.098041%,64.705884%);fill-opacity:1;" d="M 26.875 47.394531 C 26.144531 43.855469 26.980469 43.4375 29.269531 46.25 C 31.769531 49.375 31.769531 50 29.269531 50 C 28.019531 50 27.1875 49.0625 26.875 47.394531 Z M 26.875 47.394531 "/>
<path style=" stroke:none;fill-rule:nonzero;fill:rgb(65.098041%,65.098041%,64.705884%);fill-opacity:1;" d="M 34.375 48.957031 C 34.375 48.4375 35.105469 47.917969 36.042969 47.917969 C 37.082031 47.917969 37.5 47.292969 37.082031 46.355469 C 36.769531 45.417969 37.082031 44.792969 38.019531 44.792969 C 40.625 44.792969 39.6875 41.667969 36.769531 40.3125 C 31.769531 38.125 31.355469 37.394531 32.8125 33.332031 C 34.0625 29.6875 34.0625 29.480469 31.144531 27.917969 C 28.332031 26.25 28.125 26.25 27.082031 28.230469 C 26.457031 29.269531 25.519531 30.207031 25 30.207031 C 23.230469 30.207031 23.855469 25.417969 25.9375 23.542969 C 27.8125 21.769531 28.019531 21.769531 28.957031 23.542969 C 29.480469 24.480469 30.832031 25.417969 31.875 25.519531 C 33.019531 25.519531 34.792969 26.144531 35.9375 26.875 C 37.707031 27.917969 37.8125 28.230469 36.457031 29.167969 C 35.105469 30.105469 35.3125 30.519531 37.5 32.292969 L 40.105469 34.375 L 36.769531 34.375 C 32.5 34.375 32.394531 35.9375 36.355469 37.917969 C 38.855469 39.269531 39.582031 39.269531 40.519531 38.125 C 41.144531 37.394531 41.355469 36.5625 41.042969 36.144531 C 40.730469 35.832031 40.832031 34.480469 41.25 33.125 L 42.082031 30.730469 L 42.707031 33.332031 C 43.125 34.792969 43.125 36.457031 42.707031 36.980469 C 42.292969 37.605469 41.980469 38.855469 41.980469 39.792969 C 41.980469 40.832031 41.355469 43.542969 40.625 45.832031 C 39.582031 49.167969 38.75 50 36.769531 50 C 35.519531 50 34.375 49.582031 34.375 48.957031 Z M 34.375 48.957031 "/>
<path style=" stroke:none;fill-rule:nonzero;fill:rgb(65.098041%,65.098041%,64.705884%);fill-opacity:1;" d="M 41.25 48.855469 C 41.5625 48.230469 43.125 47.917969 44.480469 48.230469 C 46.457031 48.542969 47.292969 48.230469 47.605469 46.769531 C 48.4375 43.957031 50 44.375 50 47.394531 C 50 49.792969 49.582031 50 45.207031 50 C 42.082031 50 40.730469 49.582031 41.25 48.855469 Z M 41.25 48.855469 "/>
<path style=" stroke:none;fill-rule:nonzero;fill:rgb(65.098041%,65.098041%,64.705884%);fill-opacity:1;" d="M 31.25 43.855469 C 29.894531 42.707031 28.332031 42.082031 27.917969 42.292969 C 27.5 42.605469 27.082031 42.292969 27.082031 41.667969 C 27.082031 39.375 30.3125 39.375 32.292969 41.667969 C 34.0625 43.75 35 45.9375 34.167969 45.832031 C 33.957031 45.832031 32.707031 44.894531 31.25 43.855469 Z M 31.25 43.855469 "/>
<path style=" stroke:none;fill-rule:nonzero;fill:rgb(65.098041%,65.098041%,64.705884%);fill-opacity:1;" d="M 9.582031 33.4375 C 7.917969 31.667969 6.25 29.375 5.9375 28.230469 C 5.519531 26.457031 5.9375 26.042969 7.917969 26.042969 C 9.6875 26.042969 10.417969 26.667969 10.417969 28.125 C 10.417969 29.269531 11.144531 30.207031 11.980469 30.207031 C 13.019531 30.207031 13.542969 31.25 13.542969 33.332031 C 13.542969 35.105469 13.332031 36.457031 13.125 36.457031 C 12.8125 36.457031 11.25 35.105469 9.582031 33.4375 Z M 9.582031 33.4375 "/>
<path style=" stroke:none;fill-rule:nonzero;fill:rgb(65.098041%,65.098041%,64.705884%);fill-opacity:1;" d="M 15.625 33.332031 C 15.625 31.667969 16.355469 31.25 19.269531 31.25 C 23.332031 31.25 24.0625 32.707031 20.9375 34.375 C 17.707031 36.042969 15.625 35.625 15.625 33.332031 Z M 15.625 33.332031 "/>
<path style=" stroke:none;fill-rule:nonzero;fill:rgb(65.098041%,65.098041%,64.705884%);fill-opacity:1;" d="M 40 24.894531 C 39.6875 24.269531 37.5 23.957031 35.3125 24.167969 C 32.605469 24.375 31.25 24.0625 31.25 23.230469 C 31.25 21.144531 33.125 20.625 37.1875 21.769531 C 41.667969 23.019531 42.8125 22.5 40 20.3125 C 38.125 18.855469 38.125 18.855469 40.9375 18.75 C 43.4375 18.75 43.75 19.0625 43.75 22.394531 C 43.75 26.042969 41.667969 27.5 40 24.894531 Z M 40 24.894531 "/>
<path style=" stroke:none;fill-rule:nonzero;fill:rgb(65.098041%,65.098041%,64.705884%);fill-opacity:1;" d="M 7.292969 23.019531 C 7.292969 21.875 6.769531 20.832031 6.144531 20.625 C 4.375 20 6.042969 13.542969 7.917969 13.542969 C 9.0625 13.542969 9.375 12.707031 8.957031 10.207031 C 8.644531 7.917969 8.957031 6.5625 10.207031 5.519531 C 11.875 4.375 11.875 4.269531 10.105469 4.167969 C 7.8125 4.167969 3.125 8.644531 3.125 10.9375 C 3.125 11.769531 2.394531 12.5 1.5625 12.5 C 0.519531 12.5 0 11.457031 0 9.480469 C 0 3.855469 0.832031 3.125 6.875 3.125 C 12.5 3.125 12.5 3.125 12.5 6.355469 C 12.5 9.269531 12.8125 9.582031 14.894531 8.957031 C 16.144531 8.644531 18.230469 8.332031 19.582031 8.332031 C 20.832031 8.332031 21.875 7.707031 21.875 6.875 C 21.875 6.042969 23.019531 5.105469 24.480469 4.792969 C 26.144531 4.375 27.082031 3.4375 27.082031 2.082031 C 27.082031 0.3125 27.8125 0 31.25 0 C 35.105469 0 35.417969 0.207031 35.417969 3.019531 C 35.417969 6.769531 31.5625 9.480469 26.769531 9.167969 C 24.269531 9.0625 22.1875 9.894531 19.375 11.980469 C 16.042969 14.480469 15.105469 14.792969 13.4375 13.75 C 11.355469 12.394531 10.625 13.125 10 16.875 C 9.894531 17.605469 9.480469 18.855469 8.957031 19.582031 C 7.605469 21.769531 8.855469 22.082031 13.644531 20.417969 C 16.144531 19.582031 19.894531 18.644531 21.875 18.230469 L 25.519531 17.605469 L 22.605469 20.207031 C 21.042969 21.769531 18.542969 22.917969 17.082031 22.917969 C 15.730469 22.917969 14.582031 23.4375 14.582031 23.957031 C 14.582031 24.582031 12.917969 25 10.9375 25 C 8.019531 25 7.292969 24.582031 7.292969 23.019531 Z M 31.25 4.582031 C 32.707031 0.9375 32.605469 0.730469 30.207031 3.125 C 27.917969 5.417969 27.5 7.292969 29.167969 7.292969 C 29.792969 7.292969 30.730469 6.042969 31.25 4.582031 Z M 31.25 4.582031 "/>
<path style=" stroke:none;fill-rule:nonzero;fill:rgb(65.098041%,65.098041%,64.705884%);fill-opacity:1;" d="M 47.917969 18.230469 C 47.917969 17.394531 48.4375 16.667969 48.957031 16.667969 C 49.582031 16.667969 50 17.394531 50 18.230469 C 50 19.0625 49.582031 19.792969 48.957031 19.792969 C 48.4375 19.792969 47.917969 19.0625 47.917969 18.230469 Z M 47.917969 18.230469 "/>
<path style=" stroke:none;fill-rule:nonzero;fill:rgb(65.098041%,65.098041%,64.705884%);fill-opacity:1;" d="M 36.457031 17.394531 C 36.457031 16.5625 37.707031 14.792969 39.375 13.644531 C 42.1875 11.5625 40.625 10.519531 37.5 12.394531 C 35 14.0625 34.269531 12.5 36.144531 9.894531 C 37.1875 8.4375 38.855469 7.292969 39.894531 7.292969 C 41.457031 7.292969 42.292969 4.894531 41.769531 1.769531 C 41.769531 1.355469 43.542969 1.042969 45.832031 1.042969 L 50 1.042969 L 50 5.207031 C 50 9.582031 48.125 10.9375 47.1875 7.292969 C 46.667969 5.417969 44.582031 4.167969 45 6.042969 C 45 6.457031 44.894531 7.5 44.480469 8.332031 C 44.167969 9.167969 43.644531 11.667969 43.230469 13.855469 C 42.917969 16.144531 41.980469 17.707031 41.144531 17.707031 C 40.417969 17.707031 39.0625 18.019531 38.125 18.332031 C 37.082031 18.75 36.457031 18.4375 36.457031 17.394531 Z M 36.457031 17.394531 "/>
<path style=" stroke:none;fill-rule:nonzero;fill:rgb(65.098041%,65.098041%,64.705884%);fill-opacity:1;" d="M 47.917969 13.019531 C 47.917969 11.5625 48.4375 10.417969 48.957031 10.417969 C 49.582031 10.417969 50 11.5625 50 13.019531 C 50 14.480469 49.582031 15.625 48.957031 15.625 C 48.4375 15.625 47.917969 14.480469 47.917969 13.019531 Z M 47.917969 13.019531 "/>
<path style=" stroke:none;fill-rule:nonzero;fill:rgb(65.098041%,65.098041%,64.705884%);fill-opacity:1;" d="M 23.4375 12.5 C 23.125 11.875 23.542969 11.144531 24.480469 10.832031 C 26.457031 10 27.605469 10.832031 26.5625 12.394531 C 25.730469 13.855469 24.269531 13.855469 23.4375 12.5 Z M 23.4375 12.5 "/>
<path style=" stroke:none;fill-rule:nonzero;fill:rgb(78.823531%,78.431374%,78.431374%);fill-opacity:1;" d="M 21.5625 48.230469 C 21.355469 47.1875 20.730469 45.519531 20.3125 44.582031 C 19.792969 43.230469 20.105469 42.707031 21.355469 42.707031 C 27.292969 42.707031 34.0625 35.832031 33.019531 30.730469 C 32.707031 28.542969 33.125 28.230469 37.394531 27.605469 L 42.1875 26.875 L 39.792969 25 C 36.769531 22.5 36.875 22.1875 40.625 22.292969 C 43.332031 22.394531 43.75 22.8125 43.75 25.3125 C 43.75 29.894531 41.667969 43.019531 40.519531 45 C 40 46.042969 39.582031 47.605469 39.582031 48.4375 C 39.582031 50.207031 35.9375 50.625 34.894531 48.957031 C 34.582031 48.4375 35 47.917969 35.832031 47.917969 C 36.769531 47.917969 37.5 47.5 37.5 46.875 C 37.5 46.355469 36.769531 45.832031 35.832031 45.832031 C 34.894531 45.832031 33.019531 44.894531 31.5625 43.75 C 30.105469 42.605469 28.542969 41.980469 28.019531 42.292969 C 26.769531 43.019531 28.855469 46.769531 30.832031 47.605469 C 32.917969 48.332031 32.707031 50 30.519531 50 C 29.480469 50 27.8125 48.542969 26.875 46.875 C 25.9375 45.105469 24.582031 43.75 23.957031 43.75 C 22.394531 43.75 22.707031 45.417969 24.480469 46.875 C 26.5625 48.644531 26.457031 50 24.0625 50 C 23.019531 50 21.875 49.167969 21.5625 48.230469 Z M 39.894531 44.0625 C 40.417969 43.75 40 42.605469 38.957031 41.5625 C 37.082031 39.480469 31.25 38.75 31.25 40.625 C 31.25 41.25 31.769531 41.667969 32.292969 41.667969 C 32.917969 41.667969 33.332031 42.292969 33.332031 43.125 C 33.332031 44.480469 38.019531 45.207031 39.894531 44.0625 Z M 41.042969 35.9375 C 40.730469 35.207031 40.9375 33.644531 41.5625 32.5 C 42.707031 30.207031 41.355469 29.167969 37.394531 29.167969 C 35 29.167969 34.894531 30 37.1875 32.5 C 38.75 34.269531 38.75 34.375 36.144531 34.375 C 32.5 34.375 32.605469 35.9375 36.25 37.917969 C 39.269531 39.480469 41.980469 38.4375 41.042969 35.9375 Z M 41.042969 35.9375 "/>
<path style=" stroke:none;fill-rule:nonzero;fill:rgb(78.823531%,78.431374%,78.431374%);fill-opacity:1;" d="M 14.269531 37.8125 C 13.855469 37.5 13.542969 35.9375 13.4375 34.480469 C 13.4375 32.292969 13.230469 32.1875 12.707031 33.644531 C 11.980469 35.417969 11.769531 35.3125 9.582031 33.332031 C 6.769531 30.625 6.667969 29.167969 9.375 29.167969 C 11.144531 29.167969 11.457031 28.4375 11.457031 25.207031 C 11.457031 21.457031 11.667969 21.042969 15.519531 20 C 23.4375 17.605469 25.207031 18.855469 19.167969 22.707031 C 16.875 24.269531 15.625 25.730469 15.832031 26.875 C 16.25 28.644531 16.875 28.75 20.105469 27.605469 C 21.355469 27.082031 21.875 27.394531 21.875 28.542969 C 21.875 29.480469 22.605469 30.207031 23.542969 30.207031 C 26.5625 30.207031 24.375 32.8125 20 34.375 C 16.5625 35.625 15.9375 36.355469 16.875 37.292969 C 17.8125 38.230469 17.8125 38.542969 16.5625 38.542969 C 15.625 38.542969 14.582031 38.230469 14.269531 37.8125 Z M 14.269531 37.8125 "/>
<path style=" stroke:none;fill-rule:nonzero;fill:rgb(78.823531%,78.431374%,78.431374%);fill-opacity:1;" d="M 6.25 18.230469 C 6.25 16.144531 6.980469 13.125 7.8125 11.5625 C 8.644531 9.894531 9.0625 8.332031 8.855469 8.125 C 8.542969 7.8125 9.269531 6.769531 10.417969 5.730469 C 12.5 3.855469 12.5 3.855469 12.5 8.125 C 12.5 10.417969 12.082031 12.707031 11.457031 13.019531 C 10.9375 13.332031 10.417969 14.6875 10.417969 15.9375 C 10.3125 18.230469 8.230469 21.875 6.875 21.875 C 6.5625 21.875 6.25 20.207031 6.25 18.230469 Z M 6.25 18.230469 "/>
<path style=" stroke:none;fill-rule:nonzero;fill:rgb(78.823531%,78.431374%,78.431374%);fill-opacity:1;" d="M 47.917969 18.644531 C 47.917969 17.5 48.4375 16.875 48.957031 17.1875 C 49.582031 17.5 50 18.542969 50 19.375 C 50 20.207031 49.582031 20.832031 48.957031 20.832031 C 48.4375 20.832031 47.917969 19.894531 47.917969 18.644531 Z M 47.917969 18.644531 "/>
<path style=" stroke:none;fill-rule:nonzero;fill:rgb(78.823531%,78.431374%,78.431374%);fill-opacity:1;" d="M 0 11.980469 C 0 9.480469 0.519531 8.332031 1.5625 8.332031 C 3.230469 8.332031 3.4375 9.582031 2.5 13.332031 C 1.457031 16.875 0 16.042969 0 11.980469 Z M 0 11.980469 "/>
<path style=" stroke:none;fill-rule:nonzero;fill:rgb(78.823531%,78.431374%,78.431374%);fill-opacity:1;" d="M 40.417969 13.332031 C 42.394531 11.355469 41.875 10.207031 39.480469 11.457031 C 34.792969 14.0625 34.375 12.082031 38.644531 7.082031 C 40.9375 4.269531 42.5 2.082031 41.980469 2.082031 C 41.5625 2.082031 38.644531 3.75 35.519531 5.730469 C 29.269531 9.6875 28.019531 9.792969 30.625 6.042969 C 33.125 2.5 32.8125 0.105469 30.207031 2.917969 C 29.0625 4.167969 28.125 5.832031 28.125 6.769531 C 28.125 7.605469 27.292969 8.332031 26.25 8.332031 C 25.3125 8.332031 22.707031 9.480469 20.519531 10.9375 L 16.667969 13.644531 L 16.667969 10.417969 C 16.667969 8.332031 17.1875 7.292969 18.230469 7.292969 C 19.0625 7.292969 19.792969 6.875 19.792969 6.25 C 19.792969 5.730469 21.25 5.207031 22.917969 5.207031 C 25.519531 5.207031 26.042969 4.792969 26.042969 2.707031 C 26.042969 0.3125 26.25 0.207031 34.894531 0.207031 C 41.769531 0.207031 43.75 0.519531 43.75 1.667969 C 43.75 2.605469 44.894531 3.125 46.875 3.125 C 49.480469 3.125 50 3.542969 50 5.625 C 50 9.167969 48.125 10 47.292969 6.769531 C 46.980469 5.3125 46.144531 4.167969 45.625 4.167969 C 45 4.167969 44.792969 4.894531 45.105469 5.730469 C 45.519531 6.5625 45.3125 7.5 44.792969 7.8125 C 44.167969 8.230469 43.75 9.792969 43.75 11.5625 C 43.75 13.957031 43.332031 14.582031 41.457031 14.582031 C 39.6875 14.582031 39.480469 14.269531 40.417969 13.332031 Z M 40.417969 13.332031 "/>
<path style=" stroke:none;fill-rule:nonzero;fill:rgb(78.823531%,78.431374%,78.431374%);fill-opacity:1;" d="M 23.4375 12.5 C 23.125 11.980469 23.542969 11.144531 24.480469 10.832031 C 26.769531 9.894531 27.5 10.9375 25.625 12.394531 C 24.582031 13.230469 23.957031 13.332031 23.4375 12.5 Z M 23.4375 12.5 "/>
<path style=" stroke:none;fill-rule:nonzero;fill:rgb(90.196079%,90.196079%,90.196079%);fill-opacity:1;" d="M 21.875 48.019531 C 21.875 46.980469 19.792969 43.75 17.1875 40.832031 C 12.1875 35.3125 11.042969 31.25 14.480469 31.25 C 15.625 31.25 16.667969 30.832031 16.875 30.417969 C 17.5 28.855469 23.957031 24.894531 23.957031 25.9375 C 23.957031 26.5625 24.6875 27.082031 25.519531 27.082031 C 29.375 27.082031 25.105469 32.917969 20.519531 33.855469 C 15.417969 35 15.207031 35.417969 18.332031 38.644531 C 22.1875 42.707031 26.355469 42.707031 30.105469 38.644531 L 33.019531 35.519531 L 34.894531 37.707031 C 36.25 39.269531 36.355469 39.792969 35.207031 39.269531 C 34.375 38.957031 33.019531 39.167969 32.292969 39.582031 C 30.519531 40.730469 33.019531 43.332031 36.769531 44.269531 C 40 45.105469 41.667969 42.917969 39.167969 41.144531 C 37.605469 39.894531 37.605469 39.792969 39.582031 39.269531 C 42.1875 38.644531 42.292969 40.832031 40.105469 46.25 C 38.644531 49.582031 35.417969 51.5625 35.417969 48.957031 C 35.417969 48.4375 35.9375 47.917969 36.457031 47.917969 C 37.082031 47.917969 37.5 47.5 37.5 46.875 C 37.5 46.355469 36.667969 45.832031 35.625 45.832031 C 34.480469 45.832031 32.8125 44.894531 31.769531 43.75 C 30 41.875 27.082031 40.9375 27.082031 42.292969 C 27.082031 43.542969 29.582031 47.5 31.144531 48.644531 C 32.605469 49.792969 32.5 49.894531 30.519531 50 C 29.167969 50 28.125 49.375 28.125 48.644531 C 28.125 46.875 24.167969 43.230469 23.230469 44.0625 C 22.917969 44.480469 23.332031 45.625 24.269531 46.667969 C 26.5625 49.167969 26.457031 50 23.957031 50 C 22.605469 50 21.875 49.269531 21.875 48.019531 Z M 21.875 48.019531 "/>
<path style=" stroke:none;fill-rule:nonzero;fill:rgb(90.196079%,90.196079%,90.196079%);fill-opacity:1;" d="M 1.042969 40.105469 C 1.042969 35.730469 3.542969 35 4.582031 39.0625 C 5.417969 42.1875 4.6875 43.75 2.5 43.75 C 1.5625 43.75 1.042969 42.605469 1.042969 40.105469 Z M 1.042969 40.105469 "/>
<path style=" stroke:none;fill-rule:nonzero;fill:rgb(90.196079%,90.196079%,90.196079%);fill-opacity:1;" d="M 40.9375 35.832031 C 40.625 35 40.832031 33.75 41.5625 33.019531 C 42.394531 32.1875 42.707031 32.605469 42.707031 34.6875 C 42.707031 37.8125 41.980469 38.332031 40.9375 35.832031 Z M 40.9375 35.832031 "/>
<path style=" stroke:none;fill-rule:nonzero;fill:rgb(90.196079%,90.196079%,90.196079%);fill-opacity:1;" d="M 0 23.4375 C 0 17.394531 0.417969 12.5 0.9375 12.5 C 1.355469 12.5 1.769531 15.417969 1.667969 19.0625 C 1.667969 22.605469 1.980469 27.5 2.394531 30 C 3.125 33.644531 3.019531 34.375 1.667969 34.375 C 0.207031 34.375 0 32.707031 0 23.4375 Z M 0 23.4375 "/>
<path style=" stroke:none;fill-rule:nonzero;fill:rgb(90.196079%,90.196079%,90.196079%);fill-opacity:1;" d="M 33.332031 31.667969 C 33.332031 30.105469 32.292969 28.644531 30.207031 27.394531 C 26.875 25.417969 25.832031 23.230469 28.957031 24.480469 C 33.542969 26.355469 38.125 27.1875 40.832031 26.667969 C 43.230469 26.144531 43.75 26.457031 43.75 28.125 C 43.75 30 43.230469 30.105469 39.582031 29.582031 C 35.105469 28.855469 33.855469 30.417969 37.1875 32.8125 C 38.75 33.957031 38.644531 34.167969 36.144531 34.167969 C 33.855469 34.167969 33.332031 33.644531 33.332031 31.667969 Z M 33.332031 31.667969 "/>
<path style=" stroke:none;fill-rule:nonzero;fill:rgb(90.196079%,90.196079%,90.196079%);fill-opacity:1;" d="M 5.832031 22.8125 C 5.105469 19.167969 6.875 11.457031 8.332031 11.457031 C 8.957031 11.457031 9.375 10.730469 9.375 9.894531 C 9.375 8.230469 13.855469 7.917969 18.644531 9.269531 L 21.25 10 L 18.332031 12.292969 C 14.894531 14.894531 13.957031 15.105469 13.230469 13.332031 C 12.605469 11.5625 10.519531 13.4375 10 16.25 C 9.6875 17.292969 9.167969 19.167969 8.75 20.207031 C 8.125 21.980469 8.332031 22.082031 10.730469 21.457031 C 13.230469 20.832031 13.542969 21.144531 13.542969 23.4375 C 13.542969 25.730469 13.125 26.042969 10 26.042969 C 6.875 26.042969 6.457031 25.625 5.832031 22.8125 Z M 5.832031 22.8125 "/>
<path style=" stroke:none;fill-rule:nonzero;fill:rgb(90.196079%,90.196079%,90.196079%);fill-opacity:1;" d="M 39.167969 24.0625 C 38.855469 23.644531 36.875 23.332031 34.792969 23.644531 C 32.082031 23.957031 31.144531 23.644531 31.5625 22.707031 C 31.980469 21.25 33.019531 21.25 39.375 22.292969 C 43.019531 22.917969 43.125 22.917969 41.144531 21.355469 C 40 20.417969 38.4375 19.269531 37.605469 18.855469 C 35.832031 17.8125 36.875 14.582031 38.957031 14.582031 C 41.5625 14.582031 43.75 17.707031 43.75 21.457031 C 43.75 24.269531 43.332031 25 41.769531 25 C 40.625 25 39.480469 24.582031 39.167969 24.0625 Z M 39.167969 24.0625 "/>
<path style=" stroke:none;fill-rule:nonzero;fill:rgb(90.196079%,90.196079%,90.196079%);fill-opacity:1;" d="M 21.042969 19.582031 C 21.355469 18.855469 22.394531 18.019531 23.542969 17.8125 C 25.207031 17.5 25.3125 17.707031 24.0625 19.167969 C 22.394531 21.144531 20.519531 21.355469 21.042969 19.582031 Z M 21.042969 19.582031 "/>
<path style=" stroke:none;fill-rule:nonzero;fill:rgb(90.196079%,90.196079%,90.196079%);fill-opacity:1;" d="M 40.105469 5.207031 C 42.082031 3.125 42.605469 2.082031 41.5625 2.082031 C 40.730469 2.082031 39.375 2.707031 38.644531 3.4375 C 37.605469 4.480469 37.394531 4.269531 37.707031 2.605469 C 37.917969 1.042969 38.957031 0.417969 42.082031 0.207031 C 46.144531 -0.105469 46.144531 -0.105469 45.417969 3.230469 C 45.105469 5 44.792969 6.875 44.792969 7.394531 C 44.792969 7.917969 43.019531 8.332031 40.9375 8.332031 L 37.082031 8.332031 Z M 40.105469 5.207031 "/>
<path style=" stroke:none;fill-rule:nonzero;fill:rgb(90.196079%,90.196079%,90.196079%);fill-opacity:1;" d="M 10.519531 5.519531 C 11.875 3.957031 11.769531 3.855469 9.6875 4.375 C 7.707031 4.894531 7.292969 4.582031 7.292969 2.5 C 7.292969 0.3125 7.8125 0 10.9375 0 C 14.375 0 14.582031 0.207031 14.582031 3.644531 C 14.582031 6.875 14.269531 7.292969 11.875 7.292969 C 9.375 7.292969 9.269531 7.082031 10.519531 5.519531 Z M 10.519531 5.519531 "/>
<path style=" stroke:none;fill-rule:nonzero;fill:rgb(90.196079%,90.196079%,90.196079%);fill-opacity:1;" d="M 28.125 2.292969 C 28.125 0.3125 28.75 0 32.292969 0 C 35.730469 0 36.457031 0.3125 36.457031 2.082031 C 36.457031 3.4375 35.730469 4.167969 34.375 4.167969 C 33.125 4.167969 32.292969 3.4375 32.292969 2.394531 C 32.292969 0.9375 32.082031 0.9375 30.207031 2.605469 C 28.230469 4.480469 28.125 4.375 28.125 2.292969 Z M 28.125 2.292969 "/>
<path style=" stroke:none;fill-rule:nonzero;fill:rgb(99.215686%,98.823529%,98.823529%);fill-opacity:1;" d="M 0 37.292969 C 0 30.3125 0.417969 25 0.832031 25.519531 C 1.769531 26.5625 4.0625 36.144531 4.375 40.105469 C 4.792969 43.957031 2.917969 50 1.457031 50 C 0.3125 50 0 47.394531 0 37.292969 Z M 0 37.292969 "/>
<path style=" stroke:none;fill-rule:nonzero;fill:rgb(99.215686%,98.823529%,98.823529%);fill-opacity:1;" d="M 21.875 47.917969 C 21.875 46.875 18.332031 42.1875 14.0625 37.605469 C 9.792969 33.019531 6.042969 28.125 5.625 26.5625 C 4.792969 23.125 6.042969 14.894531 8.019531 10.9375 C 12.394531 2.5 12.394531 2.707031 7.8125 4.894531 C 5 6.25 3.855469 7.605469 2.917969 10.832031 C 0.832031 18.125 0 17.394531 0 8.542969 L 0 0 L 15.625 0 C 24.269531 0 31.25 0.417969 31.25 0.9375 C 31.25 1.457031 30.519531 2.394531 29.6875 3.125 C 28.855469 3.855469 28.125 5.3125 28.125 6.355469 C 28.125 7.707031 27.394531 8.332031 25.9375 8.332031 C 24.792969 8.332031 21.769531 9.792969 19.269531 11.457031 C 14.0625 15.105469 13.542969 15.207031 13.542969 12.8125 C 13.542969 9.792969 9.6875 14.269531 9.0625 18.019531 C 8.4375 22.1875 8.957031 23.125 11.25 21.875 C 17.1875 18.542969 27.917969 16.980469 22.5 20.207031 C 18.957031 22.292969 14.582031 26.25 14.582031 27.1875 C 14.582031 29.6875 18.125 29.167969 22.394531 26.144531 C 26.980469 22.8125 29.167969 22.082031 29.167969 23.957031 C 29.167969 25 35.730469 27.082031 39.375 27.082031 C 40.625 27.082031 41.667969 26.667969 41.667969 26.042969 C 41.667969 24.792969 34.6875 22.917969 32.707031 23.644531 C 31.875 23.957031 31.25 23.644531 31.25 22.917969 C 31.25 21.980469 32.8125 21.769531 36.980469 22.1875 C 40.207031 22.5 42.707031 22.394531 42.707031 21.769531 C 42.707031 21.25 42.1875 20.832031 41.667969 20.832031 C 41.042969 20.832031 39.480469 19.894531 38.230469 18.75 L 36.042969 16.5625 L 39.0625 14.167969 C 40.832031 12.707031 41.875 11.25 41.355469 10.832031 C 40.9375 10.417969 40 10.625 39.375 11.25 C 37.917969 12.707031 35.417969 12.917969 35.417969 11.457031 C 35.417969 10.9375 37.082031 8.855469 39.0625 6.875 C 44.792969 1.144531 43.230469 0.207031 36.144531 5 C 29.167969 9.792969 29.0625 9.792969 31.25 5 L 33.230469 0.519531 L 41.5625 0.207031 L 50 -0.105469 L 50 4.167969 C 50 8.542969 48.542969 9.792969 47.394531 6.25 C 47.082031 5.105469 46.355469 4.167969 45.9375 4.167969 C 44.480469 4.167969 43.75 10 43.75 20.417969 L 43.75 30.207031 L 40.9375 29.582031 C 39.269531 29.269531 37.5 28.855469 36.769531 28.644531 C 34.480469 27.917969 34.269531 30 36.355469 31.980469 C 38.332031 33.855469 38.332031 33.855469 35.832031 33.855469 C 33.957031 33.855469 33.332031 33.332031 33.332031 31.5625 C 33.332031 29.582031 30 26.042969 28.125 26.042969 C 27.8125 26.042969 26.980469 27.394531 26.25 28.957031 C 24.894531 32.082031 21.25 34.375 17.707031 34.375 C 14.792969 34.375 15.105469 35.832031 18.644531 39.375 C 20.9375 41.667969 22.5 42.292969 24.375 41.980469 C 26.355469 41.5625 27.082031 41.875 27.082031 43.125 C 27.082031 44.0625 28.019531 45.730469 29.167969 46.875 C 31.5625 49.269531 31.769531 50 29.894531 50 C 29.167969 50 28.019531 48.644531 27.394531 46.875 C 26.769531 45.207031 25.519531 43.75 24.582031 43.75 C 22.5 43.75 22.5 45.207031 24.480469 47.292969 C 26.5625 49.375 26.457031 50 23.957031 50 C 22.605469 50 21.875 49.269531 21.875 47.917969 Z M 21.875 47.917969 "/>
<path style=" stroke:none;fill-rule:nonzero;fill:rgb(99.215686%,98.823529%,98.823529%);fill-opacity:1;" d="M 36.980469 47.917969 C 37.394531 46.5625 37.1875 45.832031 36.25 45.832031 C 35.417969 45.832031 33.230469 44.6875 31.25 43.230469 C 28.542969 41.25 28.125 40.519531 29.375 40.105469 C 30.3125 39.6875 31.355469 38.4375 31.667969 37.1875 C 32.292969 35 32.394531 35 33.855469 36.875 C 34.6875 37.917969 36.769531 38.855469 38.542969 38.957031 C 40.3125 39.0625 41.667969 39.582031 41.667969 40.417969 C 41.667969 41.980469 41.667969 41.980469 37.292969 40.207031 C 35.105469 39.269531 33.230469 39.0625 32.1875 39.582031 C 30 41.042969 33.332031 44.0625 37.394531 44.167969 C 39.167969 44.269531 40.625 44.375 40.625 44.480469 C 40.625 44.582031 40.105469 45.9375 39.375 47.394531 C 38.019531 50.519531 36.042969 50.9375 36.980469 47.917969 Z M 36.980469 47.917969 "/>
<path style=" stroke:none;fill-rule:nonzero;fill:rgb(99.215686%,98.823529%,98.823529%);fill-opacity:1;" d="M 47.5 44.792969 C 46.667969 38.4375 47.917969 17.707031 49.0625 17.707031 C 49.582031 17.707031 50 25 50 33.855469 C 50 49.792969 48.855469 54.894531 47.5 44.792969 Z M 47.5 44.792969 "/>
<path style=" stroke:none;fill-rule:nonzero;fill:rgb(99.215686%,98.823529%,98.823529%);fill-opacity:1;" d="M 41.144531 36.457031 C 40.832031 35.9375 41.042969 34.582031 41.5625 33.644531 C 42.5 31.980469 42.605469 32.1875 42.707031 34.6875 C 42.707031 37.605469 42.1875 38.230469 41.144531 36.457031 Z M 41.144531 36.457031 "/>
<path style=" stroke:none;fill-rule:nonzero;fill:rgb(99.215686%,98.823529%,98.823529%);fill-opacity:1;" d="M 23.4375 11.457031 C 23.75 10.9375 24.792969 10.417969 25.625 10.417969 C 26.457031 10.417969 26.875 10.9375 26.5625 11.457031 C 26.25 12.082031 25.207031 12.5 24.375 12.5 C 23.542969 12.5 23.125 12.082031 23.4375 11.457031 Z M 23.4375 11.457031 "/>
</g>
</svg>
