<?xml version="1.0" standalone="no"?>
<!DOCTYPE svg PUBLIC "-//W3C//DTD SVG 20010904//EN"
 "http://www.w3.org/TR/2001/REC-SVG-20010904/DTD/svg10.dtd">
<svg version="1.0" xmlns="http://www.w3.org/2000/svg"
 width="24.000000pt" height="24.000000pt" viewBox="0 0 24.000000 24.000000"
 preserveAspectRatio="xMidYMid meet">

<g transform="translate(0.000000,24.000000) scale(0.100000,-0.100000)"
fill="#000000" stroke="none">
<path d="M52 210 c-14 -22 -9 -25 19 -10 13 8 19 7 19 0 0 -6 -7 -13 -15 -16
-9 -4 -15 -18 -14 -33 0 -14 -2 -50 -5 -78 -4 -34 -2 -53 5 -53 5 0 7 5 4 10
-3 6 1 10 9 10 8 0 18 -5 21 -10 3 -6 12 -10 18 -10 7 1 1 9 -12 20 -12 11
-26 18 -30 16 -4 -3 -8 5 -8 16 -2 20 -1 20 13 2 15 -18 15 -18 10 7 -4 19 -1
29 9 33 8 3 15 16 15 30 0 13 6 27 13 29 7 3 4 6 -6 6 -10 1 -15 6 -12 11 8
13 -12 40 -29 40 -6 0 -17 -9 -24 -20z"/>
<path d="M20 168 c0 -9 7 -19 16 -22 8 -3 12 -11 8 -17 -5 -8 -3 -9 5 -5 9 6
8 13 -6 29 -10 12 -19 24 -20 26 -2 2 -3 -3 -3 -11z"/>
<path d="M150 160 c0 -11 4 -20 9 -20 5 0 7 9 4 20 -3 11 -7 20 -9 20 -2 0 -4
-9 -4 -20z"/>
<path d="M192 150 c0 -19 2 -27 5 -17 2 9 2 25 0 35 -3 9 -5 1 -5 -18z"/>
<path d="M110 100 c0 -5 5 -10 11 -10 5 0 7 5 4 10 -3 6 -8 10 -11 10 -2 0 -4
-4 -4 -10z"/>
<path d="M11 80 c0 -8 6 -24 14 -34 19 -25 19 -9 0 24 -8 14 -14 19 -14 10z"/>
<path d="M152 50 c0 -19 2 -27 5 -17 2 9 2 25 0 35 -3 9 -5 1 -5 -18z"/>
<path d="M177 61 c-2 -10 -1 -25 4 -32 6 -10 9 -4 9 19 0 36 -5 42 -13 13z"/>
<path d="M208 50 c2 -17 5 -30 7 -30 2 0 5 13 7 30 3 19 0 30 -7 30 -7 0 -10
-11 -7 -30z"/>
<path d="M131 34 c0 -11 3 -14 6 -6 3 7 2 16 -1 19 -3 4 -6 -2 -5 -13z"/>
</g>
</svg>
